<?xml version="1.0" encoding="UTF-8" standalone="no"?>
<svg
   xmlns:dc="http://purl.org/dc/elements/1.1/"
   xmlns:cc="http://creativecommons.org/ns#"
   xmlns:rdf="http://www.w3.org/1999/02/22-rdf-syntax-ns#"
   xmlns:svg="http://www.w3.org/2000/svg"
   xmlns="http://www.w3.org/2000/svg"
   id="c45fffd2-7ccd-11ef-b8ef-0242ac110013"
   version="1.1"
   width="612.0pt"
   viewBox="0 0 612.0 792.0"
   height="792.0pt">
  <metadata
     id="metadata17">
    <rdf:RDF>
      <cc:Work
         rdf:about="">
        <dc:format>image/svg+xml</dc:format>
        <dc:type
           rdf:resource="http://purl.org/dc/dcmitype/StillImage" />
      </cc:Work>
    </rdf:RDF>
  </metadata>
  <defs
     id="defs15" />
  <g
     id="g2" />
  <g
     id="g6">
    <path
       id="path4"
       d="M 121.6369,371.7468 C 115.4458,367.6493 100.5559,366.7859 87.0656,368.3889 74.338,369.9009 65.8123,371.7757 63.4317,386.4583 60.2243,406.2385 65.2272,426.5246 87.8162,428.2282 98.0921,429.0035 112.6451,427.9918 127.0233,422.0206 L 133.3074,430.3996 C 117.5006,435.7202 102.7664,438.0772 89.0237,437.6968 59.5786,436.8821 36.0111,428.4964 36.1236,395.0884 36.2208,366.2592 61.2765,358.924 85.568,358.0328 98.602,357.5543 114.8012,358.6482 127.472,364.1159 L 121.6369,371.7468 Z M 198.0315,356.8734 C 179.0821,356.7427 164.982,357.8964 155.3023,363.564 145.4304,369.3438 140.6494,378.6693 139.6474,391.4223 138.3707,407.6697 141.5755,419.523 150.387,427.0623 159.2504,434.6459 173.4117,436.8889 192.7658,436.7163 213.9358,436.5275 231.0296,434.7828 241.5671,426.2377 249.7683,419.5871 253.2628,409.4702 252.8793,394.5631 252.5318,381.0555 248.8368,371.2277 239.953,364.9966 230.7294,358.5268 216.6279,357.0018 198.0315,356.8734 Z M 195.6821,366.7918 C 185.1551,367.3015 178.0118,368.9889 173.3241,372.8795 167.0077,378.1216 165.5935,386.35 165.6746,396.2163 165.763,406.9826 167.3087,415.8825 173.4894,421.2663 178.1427,425.3202 185.1996,426.8642 195.4457,426.7979 206.2715,426.7278 214.708,425.0594 220.1219,419.3566 224.7681,414.4623 226.7031,407.0123 226.8289,396.3815 226.9582,385.4509 225.2565,378.0439 221.0085,373.3447 215.5516,367.3083 206.6567,366.2606 195.6821,366.7918 Z M 263.4012,359.0853 L 263.4012,433.7297 288.0901,433.7297 288.0901,403.8718 335.2978,433.7297 363.7431,433.7297 327.0263,406.8981 C 325.4102,405.7169 326.0032,404.5076 327.6315,404.2755 346.8059,401.5397 355.2712,388.2022 355.371,380.6702 355.4708,373.1397 347.2858,359.0853 328.2367,359.0853 L 263.4012,359.0853 Z M 285.4318,369.6463 L 285.4318,393.2512 C 285.4318,394.6714 286.0586,395.3531 287.7508,395.3701 L 320.8592,395.3701 C 327.6907,395.7724 332.7021,390.5824 332.371,381.0688 332.1028,373.3648 328.0527,368.4864 320.0562,368.4864 L 288.466,368.4864 C 287.3837,368.4864 285.4318,368.5646 285.4318,369.6463 Z M 445.3911,367.3128 L 450.5411,359.8741 C 428.6367,354.8273 409.0963,352.4477 391.9844,355.8685 379.1395,358.4361 372.5456,364.18 370.2438,369.0414 367.5574,374.7155 370.8289,381.4475 379.5866,387.7217 391.2945,396.1091 404.8019,402.6858 419.8323,408.7029 426.5184,411.3797 430.3052,414.2854 431.0595,417.0073 431.7664,419.559 429.9883,422.5972 424.7915,424.5344 411.9704,429.3139 395.1828,427.8257 375.7717,422.8177 L 371.0032,430.8287 C 391.9,435.7647 413.3645,438.9327 435.4727,432.7362 447.1041,429.476 453.939,423.9425 456.0491,418.4291 457.9784,413.3883 455.7464,407.694 448.8245,401.2642 437.1029,392.7025 420.378,385.674 402.0936,377.2312 397.5401,375.1288 396.2171,371.7439 397.0182,369.6083 397.7546,367.6448 400.6176,365.6177 406.099,364.8331 419.3853,362.931 432.5287,364.2545 445.3911,367.3128 Z M 458.42,433.9225 L 473.1792,433.9225 480.494,421.1643 538.0072,421.1643 547.1203,433.9225 575.877,433.9225 525.4515,359.6006 501.3527,359.6006 C 501.3527,359.6006 458.2176,433.315 458.42,433.9225 Z M 505.1514,375.8428 L 486.4541,409.695 C 485.928,410.648 487.5883,412.0897 488.6776,412.0897 L 529.2995,412.0897 C 530.4005,412.0897 531.1071,409.9272 530.4969,409.011 L 508.4056,375.8607 C 507.8044,374.9581 505.675,374.8946 505.1514,375.8428 Z"
       style="fill-rule:evenodd;fill:#2d2c2b;" />
  </g>
  <g
     id="g8" />
  <g
     id="g10" />
</svg>
