<?xml version="1.0" encoding="UTF-8" standalone="no"?>
<svg
   xmlns:dc="http://purl.org/dc/elements/1.1/"
   xmlns:cc="http://creativecommons.org/ns#"
   xmlns:rdf="http://www.w3.org/1999/02/22-rdf-syntax-ns#"
   xmlns:svg="http://www.w3.org/2000/svg"
   xmlns="http://www.w3.org/2000/svg"
   viewBox="0 0 1706.6667 1066.6667"
   height="1066.6667"
   width="1706.6667"
   xml:space="preserve"
   id="svg2"
   version="1.1"><metadata
     id="metadata8"><rdf:RDF><cc:Work
         rdf:about=""><dc:format>image/svg+xml</dc:format><dc:type
           rdf:resource="http://purl.org/dc/dcmitype/StillImage" /></cc:Work></rdf:RDF></metadata><defs
     id="defs6"><clipPath
       id="clipPath18"
       clipPathUnits="userSpaceOnUse"><path
         id="path16"
         d="M 0,800 H 1280 V 0 H 0 Z" /></clipPath></defs><g
     transform="matrix(1.3333333,0,0,-1.3333333,0,1066.6667)"
     id="g10"><g
       id="g12"><g
         clip-path="url(#clipPath18)"
         id="g14"><g
           transform="translate(287.5415,210.8477)"
           id="g20"><path
             id="path22"
             style="fill:#231f20;fill-opacity:1;fill-rule:nonzero;stroke:none"
             d="m 0,0 h -67.283 c -18.759,0 -34.09,-15.437 -34.09,-34.308 v -51.474 c 0,-18.874 15.331,-34.322 34.09,-34.322 H 0 c 18.756,0 34.101,15.448 34.101,34.322 v 51.474 C 34.101,-15.437 18.756,0 0,0 m 7.401,-85.782 c 0,-4.099 -3.323,-7.473 -7.401,-7.473 h -67.283 c -4.078,0 -7.407,3.374 -7.407,7.473 v 51.474 c 0,4.1 3.329,7.442 7.407,7.442 H 0 c 4.078,0 7.401,-3.342 7.401,-7.442 z M -154.72,0 h -94.025 v -26.866 h 89.244 c 3.391,0 6.179,-3.342 6.179,-7.442 v -51.474 c 0,-4.099 -2.788,-7.473 -6.179,-7.473 h -60.936 v 49.542 h -28.308 v -76.391 h 94.025 c 18.206,0 33.108,15.448 33.108,34.322 v 51.474 C -121.612,-15.437 -136.505,0 -154.72,0 M 161.611,-76.854 87.8,0 H 57.519 v -120.104 h 31.342 v 78.009 l 74.355,-78.009 h 30.786 V 0 h -32.391 z m 102.255,49.988 h 89.238 V 0 h -94.031 c -18.2,0 -33.1,-15.437 -33.1,-34.308 v -51.474 c 0,-18.874 14.902,-34.322 33.1,-34.322 h 94.031 v 76.391 h -73.352 v -31.901 l 45.056,0.071 v -17.712 h -60.942 c -3.406,0 -6.179,3.374 -6.179,7.473 v 51.474 c 0,4.1 2.773,7.442 6.179,7.442" /></g><g
           transform="translate(673.7705,183.9395)"
           id="g24"><path
             id="path26"
             style="fill:#231f20;fill-opacity:1;fill-rule:nonzero;stroke:none"
             d="m 0,0 36.804,0.042 h 67.257 V 26.908 H 32.317 C 16.562,26.908 3.292,15.345 0,0 M 104.061,-16.805 H -0.78 v -76.391 h 31.696 v 44.481 l 73.145,-0.097 z M 252.304,26.908 H 135.624 V -93.196 h 116.68 v 26.849 H 172.22 v 17.564 h 80.084 v 31.978 H 172.22 V 0.042 h 80.084 z M 377.841,-49.945 304.023,26.908 H 273.754 V -93.196 h 31.342 v 78.009 l 74.349,-78.009 h 30.806 V 26.908 h -32.41 z M 478.192,0.042 h 89.241 V 26.908 H 473.42 c -18.224,0 -33.114,-15.436 -33.114,-34.307 v -51.475 c 0,-18.874 14.89,-34.322 33.114,-34.322 h 94.013 v 76.391 h -73.346 v -31.901 l 45.053,0.071 v -17.712 h -60.948 c -3.403,0 -6.185,3.374 -6.185,7.473 v 51.475 c 0,4.099 2.782,7.441 6.185,7.441" /></g><g
           transform="translate(700.8232,311.792)"
           id="g28"><path
             id="path30"
             style="fill:#ed1c24;fill-opacity:1;fill-rule:nonzero;stroke:none"
             d="m 0,0 c -84.506,19.505 -196.929,156.254 -75.318,311.245 -119.373,-23.664 -177.505,-93.398 -174.399,-209.238 -9.774,23.092 -15.161,48.528 -15.161,75.227 0,79.725 48.22,148.102 116.901,177.201 84.507,-19.49 196.934,-156.23 75.338,-311.239 119.344,23.644 177.476,93.411 174.379,209.237 9.776,-23.104 15.195,-48.518 15.195,-75.199 C 116.935,97.499 68.672,29.099 0,0 m -73.969,-14.93 c -77.5,0 -144.165,46.404 -174.093,113.149 15.453,39.746 33.875,63.338 54.803,75.84 C -184.709,36.81 -79.615,-4.626 -10.735,-4.148 -30.521,-11.122 -51.833,-14.93 -73.969,-14.93 m 0,384.318 c 77.456,0 144.116,-46.431 174.045,-113.175 -15.448,-39.724 -33.862,-63.325 -54.805,-75.818 -8.539,137.24 -113.639,178.676 -182.528,178.194 19.801,6.987 41.105,10.799 63.288,10.799 m 0,28.076 c -120.826,0 -218.769,-98.567 -218.811,-220.163 v -0.157 c 0.042,-121.586 97.947,-220.125 218.731,-220.169 h 0.16 c 120.764,0.044 218.692,98.629 218.692,220.259 0,121.631 -97.966,220.23 -218.772,220.23" /></g></g></g></g></svg>