<?xml version="1.0" encoding="UTF-8" standalone="no"?>
<svg
   xmlns:dc="http://purl.org/dc/elements/1.1/"
   xmlns:cc="http://creativecommons.org/ns#"
   xmlns:rdf="http://www.w3.org/1999/02/22-rdf-syntax-ns#"
   xmlns:svg="http://www.w3.org/2000/svg"
   xmlns="http://www.w3.org/2000/svg"
   viewBox="0 0 1589.3333 928"
   height="928"
   width="1589.3333"
   xml:space="preserve"
   id="svg2"
   version="1.1"><metadata
     id="metadata8"><rdf:RDF><cc:Work
         rdf:about=""><dc:format>image/svg+xml</dc:format><dc:type
           rdf:resource="http://purl.org/dc/dcmitype/StillImage" /></cc:Work></rdf:RDF></metadata><defs
     id="defs6" /><g
     transform="matrix(1.3333333,0,0,-1.3333333,0,928)"
     id="g10"><g
       transform="scale(0.1)"
       id="g12"><path
         id="path14"
         style="fill:#231f20;fill-opacity:1;fill-rule:evenodd;stroke:none"
         d="m 7872.98,967.883 c -0.03,190.747 75.61,140.807 538.21,139.017 658.28,-2.54 630.21,64.76 628.88,-253.666 -0.44,-104.699 39.38,-319.89 -38.81,-378.898 -57.24,-45.918 -1006.99,-36.926 -1117.09,-5.668 z M 9508.77,317.547 c 23.76,84.156 26.17,766.333 9.61,876.623 -39.18,260.9 -287,355.65 -570.54,355.2 -311.45,-0.5 -622.83,0.04 -934.28,-0.31 -294.78,-0.34 -539.01,-53.02 -608.3,-302.63 -30.28,-109.08 -28.76,-772.25 -8.55,-892.996 C 7442.51,79.8125 7665.66,3.375 7973.91,2.51953 8285.3,1.66016 8596.63,3.49219 8908.08,2.42188 9215.33,1.37109 9439,70.4102 9508.77,317.547" /><path
         id="path16"
         style="fill:#231f20;fill-opacity:1;fill-rule:evenodd;stroke:none"
         d="m 2880.02,967.883 c 0,198.547 191.95,140.897 383.5,140.937 919.22,0.13 786.28,117.54 785.18,-523.484 -0.33,-189.703 -94.12,-133.449 -526.81,-136.871 -154.12,-1.219 -502.22,-13.406 -630,17.601 z M 4526.53,374.93 c 14.38,95.422 12.28,780.59 -9.12,860.17 -68.12,253.2 -299.18,314.95 -617.89,313.13 -311.04,-1.77 -623.05,0.16 -934.2,0.18 -298.49,0.02 -523.22,-90.75 -565.62,-357.8 -17.96,-113.05 -12.97,-781.149 11.81,-871.708 71.58,-261.5192 284.62,-316.22231 613.5,-315.47622 310.9,0.70313 623.36,1.57031 934.18,-0.67578 279.08,-2.019531 522.11,71.9258 567.34,372.18" /><path
         id="path18"
         style="fill:#231f20;fill-opacity:1;fill-rule:evenodd;stroke:none"
         d="m 10430.1,1108.55 c 188.3,-0.12 869.7,19.25 988.1,-18.71 42.6,-167.555 17.5,-857.926 13.4,-1086.08609 l 477.5,0.1914 c 2.4,1647.09469 120.8,1540.56469 -1093,1544.19469 -239.5,0.72 -651.1,23.19 -871.27,-7.28 3.01,-241.04 -28.53,-1405.88 12.71,-1536.78969 h 473.66 l -1.1,1104.47969" /><path
         id="path20"
         style="fill:#231f20;fill-opacity:1;fill-rule:evenodd;stroke:none"
         d="m 480.75,967.883 c 0,120.737 8.719,138.577 137.477,140.597 l 1346.243,3.51 15.68,432.94 -445.78,3.23 C 493.266,1544.43 4.73438,1721.74 4.51563,967.883 L 5.34375,6.84375 l 475.85925,-5.5 8.164,422.62525 1108.293,-3.68 -6.08,429.426 -1109.885,2.699 -0.945,115.469" /><path
         id="path22"
         style="fill:#231f20;fill-opacity:1;fill-rule:evenodd;stroke:none"
         d="m 4884.85,1108.99 843.02,-3.48 0.07,-1099.49828 476.15,5.71488 0.75,1095.8534 845.05,3.02 c 15.57,139.38 -20.98,297.68 15.86,437.53 l -2189.02,-7.02 8.12,-432.12" /><path
         id="path24"
         style="fill:#231f20;fill-opacity:1;fill-rule:evenodd;stroke:none"
         d="m 5816.17,2594.62 c 215.71,0 235.9,133.63 346.96,316.27 221.42,364.11 462.53,826.23 686.39,1198.61 53.46,88.95 102.64,178.69 152.89,265.98 51.87,90.11 100.47,176.1 152.47,266.43 l 382.8,664.41 c 208.31,364.07 474.71,847.5 686.41,1198.57 45.21,74.96 140.3,215.58 140.3,301.86 0,88.89 -84.19,139.63 -174.53,139.63 H 6805.21 c -48.87,0 -151.94,-220.28 -173.87,-256.65 -55.64,-92.27 -109.91,-187.05 -162.96,-279.19 -53.7,-93.27 -100.71,-178.36 -156.79,-273.75 l -161.98,-280.17 c -52.01,-95.27 -107.02,-182.55 -158.32,-272.2 L 5032.53,3925.11 c -39.31,-70.42 -57.78,-68.36 -11.57,-147.46 l 563.17,-972.92 c 27.35,-45.37 49.25,-92.4 85.26,-135.81 25.41,-30.6 98.61,-74.3 146.78,-74.3" /><path
         id="path26"
         style="fill:#231f20;fill-opacity:1;fill-rule:evenodd;stroke:none"
         d="m 4198.8,5154.48 c 0,-18.19 129.88,-237.9 149.15,-269.74 l 382.06,-665.16 c 61.48,-101.24 174.46,-115.19 245.72,-51.48 28.5,25.48 494.22,850.13 545.83,943.55 l 789.99,1374.25 c 28.65,48.44 191.13,306.31 191.13,355.76 0,67.57 -4.5,59.32 -34.91,104.72 l -1233.39,11.64 c -34.22,0 -28.77,-13.89 -43.78,-37.68 -13.85,-21.95 -21.03,-36.1 -33.68,-59.4 -23.72,-43.72 -40.52,-70.64 -62.1,-112.44 -97.87,-189.55 -276.77,-482.75 -387.75,-682.73 L 4198.8,5154.48" /><path
         id="path28"
         style="fill:#231f20;fill-opacity:1;fill-rule:evenodd;stroke:none"
         d="m 3279.58,6818.39 c 0,-74.12 32.86,-111.02 83.69,-195.57 l 580.07,-1002.39 c 7.53,-13.38 13.67,-23.85 21.68,-36.49 20.18,-31.85 4,-15.57 31.1,-38.73 91.63,-78.3 192.58,-50.67 257.01,78.56 l 283.71,495.87 c 35.16,61.06 371.75,615.33 371.75,675.48 0,53.68 -14.17,100.43 -55.39,130.77 -29.1,21.41 -82.37,32.13 -130.79,32.13 H 3454.12 c -101.89,0 -174.54,-50.64 -174.54,-139.63" /></g></g></svg>