<?xml version="1.0" encoding="UTF-8" standalone="no"?>
<svg
   xmlns:dc="http://purl.org/dc/elements/1.1/"
   xmlns:cc="http://creativecommons.org/ns#"
   xmlns:rdf="http://www.w3.org/1999/02/22-rdf-syntax-ns#"
   xmlns:svg="http://www.w3.org/2000/svg"
   xmlns="http://www.w3.org/2000/svg"
   viewBox="0 0 1024.1467 140.01334"
   height="140.01334"
   width="1024.1467"
   xml:space="preserve"
   id="svg2"
   version="1.1"><metadata
     id="metadata8"><rdf:RDF><cc:Work
         rdf:about=""><dc:format>image/svg+xml</dc:format><dc:type
           rdf:resource="http://purl.org/dc/dcmitype/StillImage" /></cc:Work></rdf:RDF></metadata><defs
     id="defs6"><clipPath
       id="clipPath22"
       clipPathUnits="userSpaceOnUse"><path
         id="path20"
         d="m 1267.8,685.305 171.04,299.761 h 428.34 L 1360.94,65.0664 H 932.598 L 1153.75,475.813 c 0,0 -119.82,9.667 -232.66,-1.84 C 808.246,462.465 704.609,362.203 657.523,275.793 L 545.707,65.0664 H 117.367 L 623.613,985.066 H 1051.95 L 869.273,664.09 c 65.629,13.816 165.807,19.582 249.857,20.726 84.05,1.164 148.67,0.489 148.67,0.489 z" /></clipPath><linearGradient
       id="linearGradient38"
       spreadMethod="pad"
       gradientTransform="matrix(-4.01e-5,-917.171,-917.171,4.01e-5,992.275,981.58)"
       gradientUnits="userSpaceOnUse"
       y2="0"
       x2="1"
       y1="0"
       x1="0"><stop
         id="stop24"
         offset="0"
         style="stop-opacity:1;stop-color:#cdccc9" /><stop
         id="stop26"
         offset="0.134427"
         style="stop-opacity:1;stop-color:#ffffff" /><stop
         id="stop28"
         offset="0.296018"
         style="stop-opacity:1;stop-color:#ffffff" /><stop
         id="stop30"
         offset="0.634487"
         style="stop-opacity:1;stop-color:#949595" /><stop
         id="stop32"
         offset="0.80971"
         style="stop-opacity:1;stop-color:#949595" /><stop
         id="stop34"
         offset="0.965183"
         style="stop-opacity:1;stop-color:#ffffff" /><stop
         id="stop36"
         offset="1"
         style="stop-opacity:1;stop-color:#ffffff" /></linearGradient><clipPath
       id="clipPath52"
       clipPathUnits="userSpaceOnUse"><path
         id="path50"
         d="M 3520.46,65.0664 H 3973.1 L 5047.76,985.066 h -532.44 l -589.34,-486.214 -17.02,486.214 h -405.02 z" /></clipPath><linearGradient
       id="linearGradient68"
       spreadMethod="pad"
       gradientTransform="matrix(-3.96e-5,-906.593,-906.593,3.96e-5,4275.85,971.014)"
       gradientUnits="userSpaceOnUse"
       y2="0"
       x2="1"
       y1="0"
       x1="0"><stop
         id="stop54"
         offset="0"
         style="stop-opacity:1;stop-color:#cdccc9" /><stop
         id="stop56"
         offset="0.134427"
         style="stop-opacity:1;stop-color:#ffffff" /><stop
         id="stop58"
         offset="0.296018"
         style="stop-opacity:1;stop-color:#ffffff" /><stop
         id="stop60"
         offset="0.634487"
         style="stop-opacity:1;stop-color:#949595" /><stop
         id="stop62"
         offset="0.80971"
         style="stop-opacity:1;stop-color:#949595" /><stop
         id="stop64"
         offset="0.965183"
         style="stop-opacity:1;stop-color:#ffffff" /><stop
         id="stop66"
         offset="1"
         style="stop-opacity:1;stop-color:#ffffff" /></linearGradient><clipPath
       id="clipPath82"
       clipPathUnits="userSpaceOnUse"><path
         id="path80"
         d="m 2696.69,465.066 h -320.23 l 124.48,121.243 c 0,0 152.1,134.988 220.14,175.105 68.04,40.117 141.31,26.191 141.31,26.191 z m 248.71,520 c -208.62,0 -430.18,-89.558 -508.68,-143.64 -78.51,-54.082 -170.62,-127.781 -194.35,-150 L 1551.43,65.0664 h 399.74 l 114.37,113.4256 c 46.69,43.051 168.8,99.821 297.9,98.082 129.1,-1.742 244.95,-11.398 244.95,-11.398 L 2518.65,65.0664 h 336.94 L 3284.5,985.066 Z" /></clipPath><linearGradient
       id="linearGradient98"
       spreadMethod="pad"
       gradientTransform="matrix(-4.01e-5,-917.171,-917.171,4.01e-5,2417.96,988.553)"
       gradientUnits="userSpaceOnUse"
       y2="0"
       x2="1"
       y1="0"
       x1="0"><stop
         id="stop84"
         offset="0"
         style="stop-opacity:1;stop-color:#cdccc9" /><stop
         id="stop86"
         offset="0.134427"
         style="stop-opacity:1;stop-color:#ffffff" /><stop
         id="stop88"
         offset="0.296018"
         style="stop-opacity:1;stop-color:#ffffff" /><stop
         id="stop90"
         offset="0.634487"
         style="stop-opacity:1;stop-color:#949595" /><stop
         id="stop92"
         offset="0.80971"
         style="stop-opacity:1;stop-color:#949595" /><stop
         id="stop94"
         offset="0.965183"
         style="stop-opacity:1;stop-color:#ffffff" /><stop
         id="stop96"
         offset="1"
         style="stop-opacity:1;stop-color:#ffffff" /></linearGradient><clipPath
       id="clipPath112"
       clipPathUnits="userSpaceOnUse"><path
         id="path110"
         d="m 5537.81,465.066 h -320.23 l 124.48,121.243 c 0,0 152.11,134.988 220.15,175.105 68.03,40.117 141.31,26.191 141.31,26.191 z m 248.71,520 c -208.61,0 -430.17,-89.558 -508.68,-143.64 -78.5,-54.082 -170.61,-127.781 -194.34,-150 L 4392.56,65.0664 h 399.73 l 114.37,113.4256 c 46.69,43.051 168.81,99.821 297.91,98.082 129.1,-1.742 244.94,-11.398 244.94,-11.398 L 5359.78,65.0664 h 336.93 l 428.92,919.9996 z" /></clipPath><linearGradient
       id="linearGradient128"
       spreadMethod="pad"
       gradientTransform="matrix(-4.01e-5,-917.171,-917.171,4.01e-5,5259.09,988.553)"
       gradientUnits="userSpaceOnUse"
       y2="0"
       x2="1"
       y1="0"
       x1="0"><stop
         id="stop114"
         offset="0"
         style="stop-opacity:1;stop-color:#cdccc9" /><stop
         id="stop116"
         offset="0.134427"
         style="stop-opacity:1;stop-color:#ffffff" /><stop
         id="stop118"
         offset="0.296018"
         style="stop-opacity:1;stop-color:#ffffff" /><stop
         id="stop120"
         offset="0.634487"
         style="stop-opacity:1;stop-color:#949595" /><stop
         id="stop122"
         offset="0.80971"
         style="stop-opacity:1;stop-color:#949595" /><stop
         id="stop124"
         offset="0.965183"
         style="stop-opacity:1;stop-color:#ffffff" /><stop
         id="stop126"
         offset="1"
         style="stop-opacity:1;stop-color:#ffffff" /></linearGradient><clipPath
       id="clipPath142"
       clipPathUnits="userSpaceOnUse"><path
         id="path140"
         d="m 6594.7,381.102 c 0,0 184.28,331.214 225.06,400.601 79.21,134.813 215.68,203.363 215.68,203.363 h -528.49 c 0,0 -305.03,-542.957 -349.72,-621.648 -50.57,-89.008 -47.25,-197.707 40.15,-255.957 57.58,-38.3751 231.65,-42.3946 231.65,-42.3946 h 877.42 l 216.81,239.9996 h -907.68 c 0,0 -50.99,27.188 -20.88,76.036 z" /></clipPath><linearGradient
       id="linearGradient158"
       spreadMethod="pad"
       gradientTransform="matrix(-4.01e-5,-917.171,-917.171,4.01e-5,6823.77,981.58)"
       gradientUnits="userSpaceOnUse"
       y2="0"
       x2="1"
       y1="0"
       x1="0"><stop
         id="stop144"
         offset="0"
         style="stop-opacity:1;stop-color:#cdccc9" /><stop
         id="stop146"
         offset="0.134427"
         style="stop-opacity:1;stop-color:#ffffff" /><stop
         id="stop148"
         offset="0.296018"
         style="stop-opacity:1;stop-color:#ffffff" /><stop
         id="stop150"
         offset="0.634487"
         style="stop-opacity:1;stop-color:#949595" /><stop
         id="stop152"
         offset="0.80971"
         style="stop-opacity:1;stop-color:#949595" /><stop
         id="stop154"
         offset="0.965183"
         style="stop-opacity:1;stop-color:#ffffff" /><stop
         id="stop156"
         offset="1"
         style="stop-opacity:1;stop-color:#ffffff" /></linearGradient></defs><g
     transform="matrix(1.3333333,0,0,-1.3333333,0,140.01333)"
     id="g10"><g
       transform="scale(0.1)"
       id="g12"><path
         id="path14"
         style="fill:#100f0d;fill-opacity:1;fill-rule:nonzero;stroke:none"
         d="m 816.664,0 222.816,411.82 c -40.671,-0.304 -78.089,-2.179 -111.382,-5.57 -84.032,-8.574 -170.871,-89.348 -209.91,-160.996 L 587.117,0 H 0 L 582.945,1050.13 H 1171.14 L 997.652,747.219 c 46.228,3.082 89.888,4.25 120.538,4.668 39.22,0.539 74.26,0.687 100.59,0.687 3.18,0 6.23,0 9.14,-0.008 l 170.94,297.564 h 585.69 L 1401.61,0 H 816.664" /><g
         id="g16"><g
           clip-path="url(#clipPath22)"
           id="g18"><path
             id="path40"
             style="fill:url(#linearGradient38);fill-opacity:1;fill-rule:nonzero;stroke:none"
             d="m 1267.8,685.305 171.04,299.761 h 428.34 L 1360.94,65.0664 H 932.598 L 1153.75,475.813 c 0,0 -119.82,9.667 -232.66,-1.84 C 808.246,462.465 704.609,362.203 657.523,275.793 L 545.707,65.0664 H 117.367 L 623.613,985.066 H 1051.95 L 869.273,664.09 c 65.629,13.816 165.807,19.582 249.857,20.726 84.05,1.164 148.67,0.489 148.67,0.489" /></g></g><path
         id="path42"
         style="fill:#ffffff;fill-opacity:1;fill-rule:nonzero;stroke:none"
         d="m 955.785,85.0664 h 397.025 l 490.9,879.9996 h -396.87 l -171.09,-296.753 -8.08,0.621 c -0.09,0.007 -64.54,0.949 -148.35,-0.215 -102.03,-1.387 -192.14,-8.707 -247.203,-20.293 l -30.148,-7.363 186.151,324.003 H 631.746 L 140.84,85.0664 H 537.422 L 645.336,285.898 c 48.91,89.77 155.594,191.25 274.348,203.368 39.336,4.011 83.676,5.777 131.796,5.777 58.83,0 102.82,-3.273 103.26,-3.297 l 21.33,-0.531 z m 413.285,-30 H 909.41 l 221.83,410.0856 c -18.19,0.871 -46.55,1.938 -79.76,1.938 -47.19,0 -90.585,-1.965 -128.992,-5.879 C 818.531,450.605 716.605,357.742 669.652,271.578 L 553.992,55.0664 H 93.8984 L 615.484,995.066 H 1075.79 L 896.016,681.082 c 78.519,12.336 179.544,15 222.934,15.598 66.61,0.918 121.01,0.761 140.89,0.625 l 171.01,297.761 h 459.8 L 1369.07,55.0664" /><path
         id="path44"
         style="fill:#100f0d;fill-opacity:1;fill-rule:nonzero;stroke:none"
         d="m 3452.62,0 -19.06,1050.13 h 542.22 l 14.36,-411.157 500.44,411.157 h 745.38 L 3998.46,0 h -545.84" /><g
         id="g46"><g
           clip-path="url(#clipPath52)"
           id="g48"><path
             id="path70"
             style="fill:url(#linearGradient68);fill-opacity:1;fill-rule:nonzero;stroke:none"
             d="M 3520.46,65.0664 H 3973.1 L 5047.76,985.066 h -532.44 l -589.34,-486.214 -17.02,486.214 h -405.02 l 16.52,-919.9996" /></g></g><path
         id="path72"
         style="fill:#ffffff;fill-opacity:1;fill-rule:nonzero;stroke:none"
         d="m 3534.03,85.0664 h 433.99 L 5010.13,965.066 h -489.86 l -607.13,-497.73 -17.96,501.07 -377.33,3.625 z m 444.13,-30 h -471.27 l -17.17,943.1216 432.13,-1.11 16.96,-471.738 571.56,469.726 H 5085.4 L 3978.16,55.0664" /><path
         id="path74"
         style="fill:#100f0d;fill-opacity:1;fill-rule:nonzero;stroke:none"
         d="m 2654.61,538.887 76.22,147.539 C 2674.48,646.711 2585.67,571.094 2548.94,538.887 Z M 2411.62,0 l 92.29,204.25 c -40.62,1.82 -90.08,3.555 -141.4,4.25 l -4.98,0.031 c -108.29,0 -209.51,-46.48 -244.56,-78.258 L 1979.26,0 h -607.55 l 824.38,743.723 c 28.18,26.406 126.53,100.988 201.44,152.59 90.05,62.027 326.44,153.817 547.87,153.817 h 447.93 L 2899.44,0 h -487.82" /><g
         id="g76"><g
           clip-path="url(#clipPath82)"
           id="g78"><path
             id="path100"
             style="fill:url(#linearGradient98);fill-opacity:1;fill-rule:nonzero;stroke:none"
             d="m 2696.69,465.066 h -320.23 l 124.48,121.243 c 0,0 152.1,134.988 220.14,175.105 68.04,40.117 141.31,26.191 141.31,26.191 z m 248.71,520 c -208.62,0 -430.18,-89.558 -508.68,-143.64 -78.51,-54.082 -170.62,-127.781 -194.35,-150 L 1551.43,65.0664 h 399.74 l 114.37,113.4256 c 46.69,43.051 168.8,99.821 297.9,98.082 129.1,-1.742 244.95,-11.398 244.95,-11.398 L 2518.65,65.0664 h 336.94 L 3284.5,985.066 h -339.1" /></g></g><path
         id="path102"
         style="fill:#ffffff;fill-opacity:1;fill-rule:nonzero;stroke:none"
         d="m 2410.93,483.617 h 277.34 l 152.29,294.801 c -26.49,0.656 -70.92,-3.234 -112.46,-27.727 -66.15,-39.003 -216.52,-171.062 -218.04,-172.39 z M 2705.1,455.98 h -363.12 l 149.42,142.684 c 6.66,5.887 154.28,135.516 222.67,175.832 44.31,26.133 90.4,31.613 121.27,31.613 17.56,0 28.83,-1.832 29.31,-1.914 l 18.73,-3.101 z M 2540.06,82.9063 h 306.76 L 3262.73,967.227 H 2945.4 c -211.15,0 -430.39,-90.657 -500.84,-139.196 -77.89,-53.66 -169.13,-123.574 -192.74,-145.687 L 1587.37,82.9063 h 358.18 L 2055.9,190.402 c 53.26,49.114 176.88,101.036 301.63,101.036 l 6.1,-0.04 c 128.01,-1.726 244.57,-9.843 245.74,-9.925 l 19.78,-1.391 z m 324.3,-27.6329 h -367.11 l 90.33,199.9066 c -38.54,2.363 -128.19,7.289 -224.33,8.582 l -5.72,0.039 c -125.03,0 -240.53,-54.649 -282.63,-93.457 L 1956.79,55.2734 h -441.31 l 717.64,647.4146 c 24.1,22.585 116.93,93.796 195.76,148.105 84.34,58.098 306.82,144.07 516.52,144.07 h 360.86 L 2864.36,55.2734" /><path
         id="path104"
         style="fill:#100f0d;fill-opacity:1;fill-rule:nonzero;stroke:none"
         d="m 5495.74,538.887 76.21,147.539 C 5515.62,646.711 5426.8,571.094 5390.06,538.887 Z M 5252.74,0 l 92.29,204.25 c -40.62,1.82 -90.07,3.555 -141.39,4.25 l -4.98,0.031 c -108.3,0 -209.51,-46.48 -244.56,-78.258 L 4820.38,0 h -607.55 l 824.39,743.723 c 28.21,26.437 126.56,101.007 201.42,152.59 90.06,62.027 326.46,153.817 547.88,153.817 h 447.94 L 5740.57,0 h -487.83" /><g
         id="g106"><g
           clip-path="url(#clipPath112)"
           id="g108"><path
             id="path130"
             style="fill:url(#linearGradient128);fill-opacity:1;fill-rule:nonzero;stroke:none"
             d="m 5537.81,465.066 h -320.23 l 124.48,121.243 c 0,0 152.11,134.988 220.15,175.105 68.03,40.117 141.31,26.191 141.31,26.191 z m 248.71,520 c -208.61,0 -430.17,-89.558 -508.68,-143.64 -78.5,-54.082 -170.61,-127.781 -194.34,-150 L 4392.56,65.0664 h 399.73 l 114.37,113.4256 c 46.69,43.051 168.81,99.821 297.91,98.082 129.1,-1.742 244.94,-11.398 244.94,-11.398 L 5359.78,65.0664 h 336.93 l 428.92,919.9996 h -339.11" /></g></g><path
         id="path132"
         style="fill:#ffffff;fill-opacity:1;fill-rule:nonzero;stroke:none"
         d="m 5252.06,483.617 h 277.33 l 152.29,294.801 c -26.62,0.578 -70.92,-3.234 -112.45,-27.727 -66.15,-39.003 -216.53,-171.062 -218.05,-172.39 z m 294.17,-27.637 h -363.12 l 149.41,142.684 c 6.67,5.887 154.3,135.516 222.68,175.832 44.3,26.133 90.4,31.613 121.26,31.613 17.56,0 28.85,-1.832 29.3,-1.914 l 18.75,-3.101 z M 5381.18,82.9063 h 306.76 l 415.92,884.3207 h -317.34 c -211.14,0 -430.39,-90.657 -500.84,-139.196 -77.86,-53.629 -169.1,-123.554 -192.74,-145.687 L 4428.51,82.9063 h 358.17 l 110.33,107.4957 c 53.27,49.114 176.91,101.036 301.65,101.036 l 6.11,-0.04 c 127.99,-1.726 244.55,-9.843 245.71,-9.925 l 19.79,-1.391 z M 5705.49,55.2734 H 5338.38 L 5428.7,255.18 c -38.53,2.363 -128.17,7.289 -224.32,8.582 l -5.72,0.039 c -125.03,0 -240.54,-54.649 -282.63,-93.457 L 4797.9,55.2734 h -441.29 l 717.63,647.4146 c 24.14,22.597 116.96,93.816 195.76,148.105 84.34,58.098 306.84,144.07 516.52,144.07 h 360.86 L 5705.49,55.2734" /><path
         id="path134"
         style="fill:#100f0d;fill-opacity:1;fill-rule:nonzero;stroke:none"
         d="m 6429.03,0 c -46.09,0.269531 -200.56,4.71875 -269.97,50.9766 -110.03,73.3394 -135.5,215.0274 -61.91,344.5504 44.14,77.703 346.57,614.043 349.62,619.453 l 19.82,35.15 h 867.08 L 7065.81,918.992 C 7064.82,918.5 6946.46,858.672 6879.32,744.418 6846.08,687.875 6714.13,452.461 6669.69,373.074 H 7681.05 L 7336.7,0 h -907.67" /><g
         id="g136"><g
           clip-path="url(#clipPath142)"
           id="g138"><path
             id="path160"
             style="fill:url(#linearGradient158);fill-opacity:1;fill-rule:nonzero;stroke:none"
             d="m 6594.7,381.102 c 0,0 184.28,331.214 225.06,400.601 79.21,134.813 215.68,203.363 215.68,203.363 h -528.49 c 0,0 -305.03,-542.957 -349.72,-621.648 -50.57,-89.008 -47.25,-197.707 40.15,-255.957 57.58,-38.3751 231.65,-42.3946 231.65,-42.3946 h 877.42 l 216.81,239.9996 h -907.68 c 0,0 -50.99,27.188 -20.88,76.036" /></g></g><path
         id="path162"
         style="fill:#ffffff;fill-opacity:1;fill-rule:nonzero;stroke:none"
         d="m 6515.02,965.066 c -35.99,-60 -304.35,-538.632 -345.79,-611.574 -43.21,-76.086 -48.92,-176.519 35.81,-232.996 44.41,-29.5897 176.82,-35.4296 224.08,-35.4296 h 871.28 l 191.3,209.9996 h -879.64 l -3.09,-0.769 c -1.14,0.625 -28.13,14.363 -35.66,42.637 -4.5,16.902 -1.27,33.82 9.62,51.488 1.55,2.793 184.53,328.516 224.91,397.23 52.64,89.567 128.83,149.414 176.78,179.414 z M 7312.49,55.0664 h -883.46 c -7.35,0 -178.98,1.5859 -239.31,41.8008 -86.18,57.4298 -104.06,166.4918 -44.51,271.3168 44.18,77.761 346.66,614.316 349.7,619.726 l 3.97,7.156 h 596.04 l -53.4,-26.328 c -1.33,-0.652 -133.79,-66.816 -209.85,-196.269 -40.23,-68.457 -223.08,-395.336 -224.91,-398.629 -7.15,-11.61 -9.26,-22.973 -6.74,-32.383 3.38,-12.707 14.4,-16.391 19.52,-26.391 h 935.28 L 7312.49,55.0664" /></g></g></svg>