<?xml version="1.0" encoding="UTF-8" standalone="no"?>
<svg
   version="1.1"
   width="472.67261"
   height="365.88019"
   id="svg10"
   viewBox="0 0 472.67261 365.88019"
   sodipodi:docname="0c321dcd0e47b28ab97b8af69d53420e.cdr"
   xmlns:inkscape="http://www.inkscape.org/namespaces/inkscape"
   xmlns:sodipodi="http://sodipodi.sourceforge.net/DTD/sodipodi-0.dtd"
   xmlns="http://www.w3.org/2000/svg"
   xmlns:svg="http://www.w3.org/2000/svg">
  <defs
     id="defs14" />
  <sodipodi:namedview
     id="namedview12"
     pagecolor="#ffffff"
     bordercolor="#666666"
     borderopacity="1.0"
     inkscape:pageshadow="2"
     inkscape:pageopacity="0.0"
     inkscape:pagecheckerboard="0" />
  <path
     d="m 236.3363,0 c 130.5025,0 236.3363,81.9221 236.3363,182.9401 0,101.0179 -105.8338,182.9401 -236.3363,182.9401 C 105.8337,365.8802 0,283.958 0,182.9401 0,81.9221 105.8337,0 236.3363,0 Z m 0,18.5726 c 109.4785,0 198.2625,73.6052 198.2625,164.3675 0,90.7622 -88.784,164.3675 -198.2625,164.3675 -109.4786,0 -198.2625,-73.6053 -198.2625,-164.3675 0,-90.7623 88.7839,-164.3675 198.2625,-164.3675 z"
     style="fill:#e30016;fill-rule:evenodd"
     id="path2" />
  <path
     d="m 104.9462,263.5727 c 37.957,-8.9195 77.0556,-40.8747 93.1813,-78.6464 l 46.0446,-107.85 H 156.0478 L 68.7506,296.2329 c 35.5093,0 71.0192,0 106.5285,0 l 9.5182,-24.8077 H 101.715 Z"
     style="fill:#e30016;fill-rule:evenodd"
     id="path4" />
  <path
     d="m 214.7173,239.4461 c 33.0466,-7.7656 67.0871,-35.5869 81.1267,-68.4721 L 335.9318,77.0763 H 259.208 l -76.0037,190.8048 c 30.9155,0 61.8316,0 92.7471,0 l 8.2869,-21.5984 h -72.3342 z"
     style="fill:#e30016;fill-rule:evenodd"
     id="path6" />
  <path
     d="m 313.3816,218.9248 c 28.87,-6.7841 58.6083,-31.0891 70.8734,-59.8181 l 35.0214,-82.0304 h -67.0271 l -66.3979,166.6898 c 27.0082,0 54.017,0 81.0252,0 l 7.2395,-18.8686 H 310.924 Z"
     style="fill:#e30016;fill-rule:evenodd"
     id="path8" />
</svg>
