<?xml version="1.0" encoding="UTF-8" standalone="no"?>
<!-- Created with Inkscape (http://www.inkscape.org/) -->

<svg
   version="1.1"
   id="svg2"
   xml:space="preserve"
   width="257.008"
   height="257.008"
   viewBox="0 0 257.008 257.008"
   sodipodi:docname="39e1356ae032e4b784638374e9fac336.eps"
   xmlns:inkscape="http://www.inkscape.org/namespaces/inkscape"
   xmlns:sodipodi="http://sodipodi.sourceforge.net/DTD/sodipodi-0.dtd"
   xmlns="http://www.w3.org/2000/svg"
   xmlns:svg="http://www.w3.org/2000/svg"><defs
     id="defs6" /><sodipodi:namedview
     id="namedview4"
     pagecolor="#ffffff"
     bordercolor="#666666"
     borderopacity="1.0"
     inkscape:pageshadow="2"
     inkscape:pageopacity="0.0"
     inkscape:pagecheckerboard="0" /><g
     id="g8"
     inkscape:groupmode="layer"
     inkscape:label="ink_ext_XXXXXX"
     transform="matrix(1.3333333,0,0,-1.3333333,0,257.00799)"><g
       id="g10"
       transform="scale(0.1)"><path
         d="M 0,1927.56 H 1927.56 V 0 H 0 v 1927.56"
         style="fill:#ffffff;fill-opacity:1;fill-rule:evenodd;stroke:none"
         id="path12" /><path
         d="m 1686.05,209.227 v 18.828 H 223.379 V 209.227 H 1686.05 v 0"
         style="fill:#231f20;fill-opacity:1;fill-rule:evenodd;stroke:none"
         id="path14" /><path
         d="M 170.477,577.113 H 28.3477 v -22.351 h 17.9492 v 0 c 4.6367,0 11.8047,-7.344 11.8047,-11.985 v 0 -54.043 h 87.2424 v 66.028 h 25.133 v 22.351 0"
         style="fill:#231f20;fill-opacity:1;fill-rule:evenodd;stroke:none"
         id="path16" /><path
         d="m 591.422,283.063 v 88.468 h -47.137 v -37.879 c 0,-13.015 -6.18,-28.277 -17.43,-28.277 v 0 h -51.296 v 0 c -4.629,0 -11.52,6.434 -11.52,11.059 v 0 99.007 0 c 0,4.637 3.539,8.239 8.172,8.239 v 0 h 14.547 v 0 c 4.633,0 11.703,-7.418 11.703,-12.043 v 0 -18.793 h 43.449 v 88.777 h -42.43 v -18.375 0 c 0,-4.625 -7.707,-12.887 -12.343,-12.887 v 0 h -14.926 v 0 c -4.633,0 -8.172,5.27 -8.172,9.907 v 0 84.824 0 c 0,4.629 6.891,9.672 11.52,9.672 v 0 h 49.949 v 0 c 6.476,0 12.168,-5.891 12.168,-12.379 v 0 -40.637 h 43.82 v 75.367 H 346.934 v -22.351 h 17.961 v 0 c 4.628,0 11.793,-7.344 11.793,-11.985 v 0 -227.027 0 c 0,-4.641 -6.895,-10.375 -11.528,-10.375 v 0 h -17.941 v -22.312 h 244.203 v 0"
         style="fill:#231f20;fill-opacity:1;fill-rule:evenodd;stroke:none"
         id="path18" /><path
         d="m 678.645,464.359 97.367,-181.296 h 85.933 v 260.55 c 0,4.629 6.895,11.149 11.524,11.149 v 0 h 17.949 v 22.351 h -96.371 v -22.351 h 18.039 v 0 c 4.637,0 11.531,-6.489 11.531,-11.11 v 0 -153.039 l -104.57,186.5 H 611.551 v -22.351 h 17.953 v 0 c 4.637,0 11.805,-7.004 11.805,-11.637 v 0 -227.031 0 c 0,-4.637 -6.899,-10.719 -11.524,-10.719 v 0 h -17.953 v -22.312 h 96.379 v 22.312 h -18.035 v 0 c -4.637,0 -11.531,6.031 -11.531,10.676 v 0 148.308 0"
         style="fill:#231f20;fill-opacity:1;fill-rule:evenodd;stroke:none"
         id="path20" /><path
         d="m 958.953,470.688 -47.902,-155.61 v 0 c -1.778,-4.785 -4.578,-9.703 -9.207,-9.703 v 0 h -18.703 v -22.312 h 89.754 l -0.168,22.312 h -17.946 v 0 c -4.633,0 -9.504,5.016 -8.176,9.652 v 0 l 19.016,69.325 v 0 c 0.438,1.808 1.621,3.406 3.473,3.406 v 0 h 36.476 v 27.058 l -26.265,-0.023 v 0 c -1.856,0 -4.086,1.836 -3.496,3.691 v 0 l 14.734,52.204 h -31.59 v 0"
         style="fill:#231f20;fill-opacity:1;fill-rule:evenodd;stroke:none"
         id="path22" /><path
         d="m 1005.57,387.758 h 33.79 v 0 c 1.85,0 3.48,-1.598 3.91,-3.406 v 0 l 19.02,-69.325 v 0 c 1.34,-4.636 -3.54,-9.652 -8.18,-9.652 v 0 h -17.94 L 1036,283.063 h 147.17 v 22.312 h -18.7 v 0 c -4.63,0 -7.44,4.918 -9.21,9.703 v 0 l -77.07,262.035 H 948.547 v -22.351 h 14.676 v 0 c 13.511,-0.055 18.691,-9.86 16.023,-19.532 v 0 l -20.293,-64.542 h 31.59 l 14.297,49.449 29.02,-101.625 v 0 c 0.59,-1.844 -2.03,-3.696 -3.88,-3.696 v 0 h -24.41 v -27.058 0"
         style="fill:#231f20;fill-opacity:1;fill-rule:evenodd;stroke:none"
         id="path24" /><path
         d="m 1404.2,351.535 0.01,191.153 v 0 c 0,4.625 7.11,12.074 11.75,12.074 v 0 h 17.87 v 22.351 h -89.49 v -22.351 h 17.94 v 0 c 4.63,0 11.75,-7.598 11.75,-12.235 v 0 l -0.01,-192.007 v 0 c -0.6,-52.68 -95.32,-58.215 -95.91,2.148 v 0 190.258 0 c 0,4.633 7.11,11.836 11.73,11.836 v 0 h 17.88 v 22.351 h -146.46 v -22.351 h 17.95 v 0 c 4.63,0 11.74,-7.344 11.74,-11.985 v 0 -192.125 0 c 0,-94.714 213.25,-99.738 213.25,0.883 v 0 0"
         style="fill:#231f20;fill-opacity:1;fill-rule:evenodd;stroke:none"
         id="path26" /><path
         d="m 1571.67,543.023 c 0,4.645 7.21,11.739 11.84,11.739 v 0 h 17.99 v 22.351 h -146.88 v -22.351 h 17.95 v 0 c 4.63,0 11.81,-7.004 11.81,-11.637 v 0 -227.031 0 c 0,-4.629 -6.91,-10.719 -11.53,-10.719 v 0 h -14.6 v -22.312 h 227.68 v 88.816 h -47.13 v -37.883 0 c 0,-13.012 -6.19,-28.621 -17.43,-28.621 v 0 h -38.27 v 0 c -4.64,0 -11.52,6.777 -11.52,11.414 v 0 l 0.09,226.234 v 0"
         style="fill:#231f20;fill-opacity:1;fill-rule:evenodd;stroke:none"
         id="path28" /><path
         d="m 1777.43,283.063 h 73.32 v 22.312 h -17.96 v 0 c -4.63,0 -11.74,6.535 -11.74,11.172 v 0 l 0.01,233.215 v 0 c 0,2.785 2.19,4.945 4.98,4.945 21.35,-0.82 30.55,-7.766 30.55,-36.973 v 0 -27.226 h 42.62 v 86.605 h -121.78 -121.78 v -86.605 h 42.62 v 27.226 0 c 0,29.207 9.19,36.153 30.54,36.973 2.8,0 4.99,-2.16 4.99,-4.945 v 0 l 0.02,-233.215 v 0 c 0,-4.637 -7.11,-11.172 -11.75,-11.172 v 0 h -17.94 v -22.312 h 73.3 v 0"
         style="fill:#231f20;fill-opacity:1;fill-rule:evenodd;stroke:none"
         id="path30" /><path
         d="m 154.5,425.625 c 3.586,0 8.5,-3.609 10.559,-7.383 v 0 l 0.296,-0.277 59.415,-134.902 h 101.828 v 22.312 h -7.153 v 0 c -6.121,0 -9.203,7.695 -12.91,14.102 v 0 l -61.773,108.875 v 0 c 37.703,0 56.625,29.699 57.07,69.25 -0.457,39.937 -18.258,79.511 -64.773,79.511 v 0 h -66.582 v -22.351 h 7.992 v 0 c 40.976,0 41.57,-106.574 0,-106.574 v 0 h -33.125 v 40.546 H 58.1016 v -173.086 0 c 0,-4.628 -6.8828,-10.273 -11.5118,-10.273 v 0 H 28.6484 V 283.063 H 174.941 v 22.312 h -18.074 v 0 c -4.637,0 -11.523,6.031 -11.523,10.676 v 0 l 0.09,109.566 h 10.015 l -0.949,0.008 v 0"
         style="fill:#231f20;fill-opacity:1;fill-rule:evenodd;stroke:none"
         id="path32" /><path
         d="M 969.773,955.641 880.18,800.426 v 0 c -2.918,-5 -10.422,-0.746 -8.496,4.449 v 0 l 74.582,171.215 -148.543,257.29 -203.571,-0.05 v 0 c 0.266,-2.68 2.082,-6.22 2.477,-7.2 v 0 L 857.918,773.535 v 0 c 1.582,-2.379 4.664,-5.668 8.687,-5.703 v 0 H 1060.3 v 0 c 3.91,0.035 7.05,2.625 8.08,4.293 v 0 l 261.59,453.395 v 0 c 0.83,1.33 2.62,5.34 4.82,10.71 v 0 H 1131.91 L 963.902,945.5 l 5.871,10.141 v 0"
         style="fill:#231f20;fill-opacity:1;fill-rule:evenodd;stroke:none"
         id="path34" /><path
         d="m 1102.7,1235.13 h 229.98 v 0 c 3.53,0 6.41,2.75 6.59,6.26 0.3,5.78 -1.01,12.2 -3.86,17.26 v 0 l -261.8,452.94 v 0 c -2.95,4.9 -8.15,6.99 -13.63,6.74 v 0 H 867.871 v 0 c -5.375,0.15 -11.211,-2.13 -14.379,-6.69 v 0 l -0.308,-0.48 -260.45,-452.53 v 0 c -3.14,-5.61 -5.058,-13.09 -5.476,-19.48 -0.238,-3.64 2.523,-6.78 6.16,-7.02 v 0 l 0.426,-0.01 h 231.672 l 132.691,-228.68 v 0 c 1.824,-3.16 5.863,-4.229 9.02,-2.4 1.05,0.61 1.8,1.37 2.414,2.42 v 0 l 132.629,230.79 v 0 c 0.18,0.3 0.3,0.56 0.43,0.88 z m -12.27,5.02 -126.539,-220.19 -127.289,219.36 127.308,220.49 z m -265.606,5.17 H 601.609 v 0 c 0.684,2.5 1.469,4.55 2.653,6.85 v 0 l 260.113,451.96 1.449,0.82 v 0 c 0.551,0.25 1.297,0.18 1.84,0.18 0.941,-0.02 193.066,0 193.466,0.04 0.47,0.06 0.9,-0.11 1.21,-0.47 v 0 l 261.55,-452.55 v 0 c 0.67,-1.28 1.12,-2.42 1.51,-3.81 v 0 h -224.44 l -131.331,227.98 v 0 c -1.82,3.17 -5.856,4.25 -9.02,2.43 -1.05,-0.61 -1.812,-1.36 -2.418,-2.42 v 0 L 824.824,1245.32 v 0"
         style="fill:#231f20;fill-opacity:1;fill-rule:evenodd;stroke:none"
         id="path36" /><path
         d="m 795.793,1244.48 h 35.355 l 132.762,228.55 130.47,-226.71 35.81,-0.02 -149.124,258.25 75.454,171.45 v 0 c 1.99,4.61 -6.06,8.34 -8.68,3.79 v 0 L 795.793,1244.48 v 0"
         style="fill:#231f20;fill-opacity:1;fill-rule:evenodd;stroke:none"
         id="path38" /><path
         d="m 853.059,771.246 c 2.961,-5.199 7.754,-8.336 13.695,-8.988 v 0 l 0.359,-0.039 v 0 c 0.071,-0.008 194.257,0 194.257,0 5.18,0.168 10.58,2.883 13.43,7.304 v 0 l 262.08,454.267 v 0 c 1.06,2.34 1.65,10.26 2,14.09 v 0 l -13.17,1.15 -0.69,-7.88 -0.29,-1.99 -260.98,-452.375 v 0 c -0.71,-0.84 -1.61,-1.297 -2.7,-1.355 v 0 H 867.906 v 0 c -1.371,0.113 -2.742,1.246 -3.394,2.386 v 0 L 603.434,1230.06 v 0 c -0.496,0.99 -1.786,4.46 -1.86,5.07 -0.441,3.61 -3.738,6.19 -7.355,5.75 -3.621,-0.45 -6.196,-3.74 -5.758,-7.36 0.18,-1.45 0.574,-3.17 1.098,-4.52 v 0 l 2.007,-4.81 261.493,-452.944 v 0"
         style="fill:#231f20;fill-opacity:1;fill-rule:evenodd;stroke:none"
         id="path40" /></g></g></svg>
