<?xml version="1.0" encoding="UTF-8" standalone="no"?>
<svg
   xmlns:dc="http://purl.org/dc/elements/1.1/"
   xmlns:cc="http://creativecommons.org/ns#"
   xmlns:rdf="http://www.w3.org/1999/02/22-rdf-syntax-ns#"
   xmlns:svg="http://www.w3.org/2000/svg"
   xmlns="http://www.w3.org/2000/svg"
   viewBox="0 0 249.33333 249.33333"
   height="249.33333"
   width="249.33333"
   xml:space="preserve"
   id="svg2"
   version="1.1"><metadata
     id="metadata8"><rdf:RDF><cc:Work
         rdf:about=""><dc:format>image/svg+xml</dc:format><dc:type
           rdf:resource="http://purl.org/dc/dcmitype/StillImage" /></cc:Work></rdf:RDF></metadata><defs
     id="defs6"><linearGradient
       id="linearGradient72"
       spreadMethod="pad"
       gradientTransform="matrix(-445.185,-608.878,608.878,-445.185,1158.91,1401.52)"
       gradientUnits="userSpaceOnUse"
       y2="0"
       x2="1"
       y1="0"
       x1="0"><stop
         id="stop64"
         offset="0"
         style="stop-opacity:1;stop-color:#c8c7c7" /><stop
         id="stop66"
         offset="0.35393"
         style="stop-opacity:1;stop-color:#f4f4f4" /><stop
         id="stop68"
         offset="0.72528"
         style="stop-opacity:1;stop-color:#f4f4f4" /><stop
         id="stop70"
         offset="1"
         style="stop-opacity:1;stop-color:#a7a5a6" /></linearGradient><linearGradient
       id="linearGradient100"
       spreadMethod="pad"
       gradientTransform="matrix(-162.41,184.965,-184.965,-162.41,1098.29,1022.85)"
       gradientUnits="userSpaceOnUse"
       y2="0"
       x2="1"
       y1="0"
       x1="0"><stop
         id="stop92"
         offset="0"
         style="stop-opacity:1;stop-color:#7b7979" /><stop
         id="stop94"
         offset="0.10338"
         style="stop-opacity:1;stop-color:#7b7979" /><stop
         id="stop96"
         offset="0.55907"
         style="stop-opacity:1;stop-color:#393536" /><stop
         id="stop98"
         offset="1"
         style="stop-opacity:1;stop-color:#393536" /></linearGradient><linearGradient
       id="linearGradient116"
       spreadMethod="pad"
       gradientTransform="matrix(-144.111,124.994,-124.994,-144.111,901.489,1270.07)"
       gradientUnits="userSpaceOnUse"
       y2="0"
       x2="1"
       y1="0"
       x1="0"><stop
         id="stop104"
         offset="0"
         style="stop-opacity:1;stop-color:#7b7979" /><stop
         id="stop106"
         offset="0.22785"
         style="stop-opacity:1;stop-color:#7b7979" /><stop
         id="stop108"
         offset="0.37131"
         style="stop-opacity:1;stop-color:#ffffff" /><stop
         id="stop110"
         offset="0.45992"
         style="stop-opacity:1;stop-color:#ffffff" /><stop
         id="stop112"
         offset="0.5865"
         style="stop-opacity:1;stop-color:#393536" /><stop
         id="stop114"
         offset="1"
         style="stop-opacity:1;stop-color:#393536" /></linearGradient><linearGradient
       id="linearGradient128"
       spreadMethod="pad"
       gradientTransform="matrix(-202.859,164.729,-164.729,-202.859,932.622,1042.35)"
       gradientUnits="userSpaceOnUse"
       y2="0"
       x2="1"
       y1="0"
       x1="0"><stop
         id="stop120"
         offset="0"
         style="stop-opacity:1;stop-color:#7b7979" /><stop
         id="stop122"
         offset="0.10759"
         style="stop-opacity:1;stop-color:#7b7979" /><stop
         id="stop124"
         offset="0.42405"
         style="stop-opacity:1;stop-color:#393536" /><stop
         id="stop126"
         offset="1"
         style="stop-opacity:1;stop-color:#393536" /></linearGradient><radialGradient
       id="radialGradient142"
       spreadMethod="pad"
       gradientTransform="matrix(206.385,0,0,206.385,1229.03,909.546)"
       gradientUnits="userSpaceOnUse"
       r="1"
       cy="0"
       cx="0"
       fy="0"
       fx="0"><stop
         id="stop132"
         offset="0"
         style="stop-opacity:1;stop-color:#f4f4f4" /><stop
         id="stop134"
         offset="0.11683"
         style="stop-opacity:1;stop-color:#f4f4f4" /><stop
         id="stop136"
         offset="0.3427"
         style="stop-opacity:1;stop-color:#918f90" /><stop
         id="stop138"
         offset="0.57865"
         style="stop-opacity:1;stop-color:#393536" /><stop
         id="stop140"
         offset="1"
         style="stop-opacity:1;stop-color:#393536" /></radialGradient><radialGradient
       id="radialGradient156"
       spreadMethod="pad"
       gradientTransform="matrix(471.035,0,0,471.035,903.228,793.44)"
       gradientUnits="userSpaceOnUse"
       r="1"
       cy="0"
       cx="0"
       fy="0"
       fx="0"><stop
         id="stop146"
         offset="0"
         style="stop-opacity:1;stop-color:#f4f4f4" /><stop
         id="stop148"
         offset="0.0280899"
         style="stop-opacity:1;stop-color:#f4f4f4" /><stop
         id="stop150"
         offset="0.0674157"
         style="stop-opacity:1;stop-color:#918f90" /><stop
         id="stop152"
         offset="0.16292"
         style="stop-opacity:1;stop-color:#393536" /><stop
         id="stop154"
         offset="1"
         style="stop-opacity:1;stop-color:#393536" /></radialGradient><linearGradient
       id="linearGradient176"
       spreadMethod="pad"
       gradientTransform="matrix(-132.146,157.485,-157.485,-132.146,1103.5,1267.96)"
       gradientUnits="userSpaceOnUse"
       y2="0"
       x2="1"
       y1="0"
       x1="0"><stop
         id="stop160"
         offset="0"
         style="stop-opacity:1;stop-color:#7b7979" /><stop
         id="stop162"
         offset="0.021097"
         style="stop-opacity:1;stop-color:#7b7979" /><stop
         id="stop164"
         offset="0.0548523"
         style="stop-opacity:1;stop-color:#696667" /><stop
         id="stop166"
         offset="0.11603"
         style="stop-opacity:1;stop-color:#656263" /><stop
         id="stop168"
         offset="0.25"
         style="stop-opacity:1;stop-color:#ffffff" /><stop
         id="stop170"
         offset="0.26582"
         style="stop-opacity:1;stop-color:#ffffff" /><stop
         id="stop172"
         offset="0.55274"
         style="stop-opacity:1;stop-color:#393536" /><stop
         id="stop174"
         offset="1"
         style="stop-opacity:1;stop-color:#393536" /></linearGradient><linearGradient
       id="linearGradient194"
       spreadMethod="pad"
       gradientTransform="matrix(-11.3655,44.7024,-44.7024,-11.3655,714.282,1274.71)"
       gradientUnits="userSpaceOnUse"
       y2="0"
       x2="1"
       y1="0"
       x1="0"><stop
         id="stop180"
         offset="0"
         style="stop-opacity:1;stop-color:#231f20" /><stop
         id="stop182"
         offset="0.24157"
         style="stop-opacity:1;stop-color:#231f20" /><stop
         id="stop184"
         offset="0.39888"
         style="stop-opacity:1;stop-color:#4f4c4d" /><stop
         id="stop186"
         offset="0.51685"
         style="stop-opacity:1;stop-color:#7b7979" /><stop
         id="stop188"
         offset="0.61798"
         style="stop-opacity:1;stop-color:#7b7979" /><stop
         id="stop190"
         offset="0.7191"
         style="stop-opacity:1;stop-color:#4f4c4d" /><stop
         id="stop192"
         offset="1"
         style="stop-opacity:1;stop-color:#4f4c4d" /></linearGradient><linearGradient
       id="linearGradient210"
       spreadMethod="pad"
       gradientTransform="matrix(-47.9357,39.7867,-39.7867,-47.9357,1015.76,1376.3)"
       gradientUnits="userSpaceOnUse"
       y2="0"
       x2="1"
       y1="0"
       x1="0"><stop
         id="stop198"
         offset="0"
         style="stop-opacity:1;stop-color:#393536" /><stop
         id="stop200"
         offset="0.0617978"
         style="stop-opacity:1;stop-color:#393536" /><stop
         id="stop202"
         offset="0.41011"
         style="stop-opacity:1;stop-color:#7b7979" /><stop
         id="stop204"
         offset="0.56742"
         style="stop-opacity:1;stop-color:#4f4c4d" /><stop
         id="stop206"
         offset="0.83708"
         style="stop-opacity:1;stop-color:#393536" /><stop
         id="stop208"
         offset="1"
         style="stop-opacity:1;stop-color:#393536" /></linearGradient><linearGradient
       id="linearGradient226"
       spreadMethod="pad"
       gradientTransform="matrix(171.218,0,0,171.218,705.786,1380.24)"
       gradientUnits="userSpaceOnUse"
       y2="0"
       x2="1"
       y1="0"
       x1="0"><stop
         id="stop214"
         offset="0"
         style="stop-opacity:1;stop-color:#393536" /><stop
         id="stop216"
         offset="0.12921"
         style="stop-opacity:1;stop-color:#393536" /><stop
         id="stop218"
         offset="0.42697"
         style="stop-opacity:1;stop-color:#7b7979" /><stop
         id="stop220"
         offset="0.54494"
         style="stop-opacity:1;stop-color:#7b7979" /><stop
         id="stop222"
         offset="0.86517"
         style="stop-opacity:1;stop-color:#393536" /><stop
         id="stop224"
         offset="1"
         style="stop-opacity:1;stop-color:#393536" /></linearGradient><linearGradient
       id="linearGradient242"
       spreadMethod="pad"
       gradientTransform="matrix(129.144,0,0,129.144,749.995,1200.72)"
       gradientUnits="userSpaceOnUse"
       y2="0"
       x2="1"
       y1="0"
       x1="0"><stop
         id="stop230"
         offset="0"
         style="stop-opacity:1;stop-color:#393536" /><stop
         id="stop232"
         offset="0.12921"
         style="stop-opacity:1;stop-color:#393536" /><stop
         id="stop234"
         offset="0.42697"
         style="stop-opacity:1;stop-color:#7b7979" /><stop
         id="stop236"
         offset="0.54494"
         style="stop-opacity:1;stop-color:#7b7979" /><stop
         id="stop238"
         offset="0.86517"
         style="stop-opacity:1;stop-color:#393536" /><stop
         id="stop240"
         offset="1"
         style="stop-opacity:1;stop-color:#393536" /></linearGradient><linearGradient
       id="linearGradient258"
       spreadMethod="pad"
       gradientTransform="matrix(129.144,0,0,129.144,954.966,1200.72)"
       gradientUnits="userSpaceOnUse"
       y2="0"
       x2="1"
       y1="0"
       x1="0"><stop
         id="stop246"
         offset="0"
         style="stop-opacity:1;stop-color:#393536" /><stop
         id="stop248"
         offset="0.12921"
         style="stop-opacity:1;stop-color:#393536" /><stop
         id="stop250"
         offset="0.42697"
         style="stop-opacity:1;stop-color:#7b7979" /><stop
         id="stop252"
         offset="0.54494"
         style="stop-opacity:1;stop-color:#7b7979" /><stop
         id="stop254"
         offset="0.86517"
         style="stop-opacity:1;stop-color:#393536" /><stop
         id="stop256"
         offset="1"
         style="stop-opacity:1;stop-color:#393536" /></linearGradient><linearGradient
       id="linearGradient274"
       spreadMethod="pad"
       gradientTransform="matrix(94.3159,0,0,94.3159,597.764,1086.47)"
       gradientUnits="userSpaceOnUse"
       y2="0"
       x2="1"
       y1="0"
       x1="0"><stop
         id="stop262"
         offset="0"
         style="stop-opacity:1;stop-color:#393536" /><stop
         id="stop264"
         offset="0.12921"
         style="stop-opacity:1;stop-color:#393536" /><stop
         id="stop266"
         offset="0.42697"
         style="stop-opacity:1;stop-color:#7b7979" /><stop
         id="stop268"
         offset="0.54494"
         style="stop-opacity:1;stop-color:#7b7979" /><stop
         id="stop270"
         offset="0.86517"
         style="stop-opacity:1;stop-color:#393536" /><stop
         id="stop272"
         offset="1"
         style="stop-opacity:1;stop-color:#393536" /></linearGradient><linearGradient
       id="linearGradient290"
       spreadMethod="pad"
       gradientTransform="matrix(174.435,0,0,174.435,739.126,948.696)"
       gradientUnits="userSpaceOnUse"
       y2="0"
       x2="1"
       y1="0"
       x1="0"><stop
         id="stop278"
         offset="0"
         style="stop-opacity:1;stop-color:#393536" /><stop
         id="stop280"
         offset="0.12921"
         style="stop-opacity:1;stop-color:#393536" /><stop
         id="stop282"
         offset="0.42697"
         style="stop-opacity:1;stop-color:#7b7979" /><stop
         id="stop284"
         offset="0.54494"
         style="stop-opacity:1;stop-color:#7b7979" /><stop
         id="stop286"
         offset="0.86517"
         style="stop-opacity:1;stop-color:#393536" /><stop
         id="stop288"
         offset="1"
         style="stop-opacity:1;stop-color:#393536" /></linearGradient><linearGradient
       id="linearGradient306"
       spreadMethod="pad"
       gradientTransform="matrix(200.656,0,0,200.656,956.079,974.834)"
       gradientUnits="userSpaceOnUse"
       y2="0"
       x2="1"
       y1="0"
       x1="0"><stop
         id="stop294"
         offset="0"
         style="stop-opacity:1;stop-color:#393536" /><stop
         id="stop296"
         offset="0.12921"
         style="stop-opacity:1;stop-color:#393536" /><stop
         id="stop298"
         offset="0.42697"
         style="stop-opacity:1;stop-color:#7b7979" /><stop
         id="stop300"
         offset="0.54494"
         style="stop-opacity:1;stop-color:#7b7979" /><stop
         id="stop302"
         offset="0.86517"
         style="stop-opacity:1;stop-color:#393536" /><stop
         id="stop304"
         offset="1"
         style="stop-opacity:1;stop-color:#393536" /></linearGradient><linearGradient
       id="linearGradient322"
       spreadMethod="pad"
       gradientTransform="matrix(112.005,0,0,112.005,1160.68,1130.92)"
       gradientUnits="userSpaceOnUse"
       y2="0"
       x2="1"
       y1="0"
       x1="0"><stop
         id="stop310"
         offset="0"
         style="stop-opacity:1;stop-color:#393536" /><stop
         id="stop312"
         offset="0.12921"
         style="stop-opacity:1;stop-color:#393536" /><stop
         id="stop314"
         offset="0.42697"
         style="stop-opacity:1;stop-color:#7b7979" /><stop
         id="stop316"
         offset="0.54494"
         style="stop-opacity:1;stop-color:#7b7979" /><stop
         id="stop318"
         offset="0.86517"
         style="stop-opacity:1;stop-color:#393536" /><stop
         id="stop320"
         offset="1"
         style="stop-opacity:1;stop-color:#393536" /></linearGradient><linearGradient
       id="linearGradient342"
       spreadMethod="pad"
       gradientTransform="matrix(44.6313,54.7896,-54.7896,44.6313,1130.68,1268.48)"
       gradientUnits="userSpaceOnUse"
       y2="0"
       x2="1"
       y1="0"
       x1="0"><stop
         id="stop326"
         offset="0"
         style="stop-opacity:1;stop-color:#393536" /><stop
         id="stop328"
         offset="0.12921"
         style="stop-opacity:1;stop-color:#393536" /><stop
         id="stop330"
         offset="0.37079"
         style="stop-opacity:1;stop-color:#7b7979" /><stop
         id="stop332"
         offset="0.49438"
         style="stop-opacity:1;stop-color:#bdbcbc" /><stop
         id="stop334"
         offset="0.56742"
         style="stop-opacity:1;stop-color:#bdbcbc" /><stop
         id="stop336"
         offset="0.66854"
         style="stop-opacity:1;stop-color:#7b7979" /><stop
         id="stop338"
         offset="0.86517"
         style="stop-opacity:1;stop-color:#393536" /><stop
         id="stop340"
         offset="1"
         style="stop-opacity:1;stop-color:#393536" /></linearGradient><linearGradient
       id="linearGradient352"
       spreadMethod="pad"
       gradientTransform="matrix(-14.6764,15.7079,-15.7079,-14.6764,1180.15,1317.8)"
       gradientUnits="userSpaceOnUse"
       y2="0"
       x2="1"
       y1="0"
       x1="0"><stop
         id="stop346"
         offset="0"
         style="stop-opacity:1;stop-color:#393536" /><stop
         id="stop348"
         offset="0.12921"
         style="stop-opacity:1;stop-color:#393536" /><stop
         id="stop350"
         offset="1"
         style="stop-opacity:1;stop-color:#656263" /></linearGradient><clipPath
       id="clipPath364"
       clipPathUnits="userSpaceOnUse"><path
         id="path362"
         d="m 752.984,1272.93 h 107.625 v -1.23 H 752.984 Z" /></clipPath><linearGradient
       id="linearGradient374"
       spreadMethod="pad"
       gradientTransform="matrix(107.616,0,0,107.616,752.974,1272.32)"
       gradientUnits="userSpaceOnUse"
       y2="0"
       x2="1"
       y1="0"
       x1="0"><stop
         id="stop366"
         offset="0"
         style="stop-opacity:1;stop-color:#393536" /><stop
         id="stop368"
         offset="0.0472441"
         style="stop-opacity:1;stop-color:#393536" /><stop
         id="stop370"
         offset="0.92913"
         style="stop-opacity:1;stop-color:#7b7979" /><stop
         id="stop372"
         offset="1"
         style="stop-opacity:1;stop-color:#7b7979" /></linearGradient><clipPath
       id="clipPath384"
       clipPathUnits="userSpaceOnUse"><path
         id="path382"
         d="m 989.516,1272.93 h 94.714 v -1.23 h -94.714 z" /></clipPath><linearGradient
       id="linearGradient402"
       spreadMethod="pad"
       gradientTransform="matrix(94.7247,0,0,94.7247,989.517,1272.36)"
       gradientUnits="userSpaceOnUse"
       y2="0"
       x2="1"
       y1="0"
       x1="0"><stop
         id="stop386"
         offset="0"
         style="stop-opacity:1;stop-color:#231f20" /><stop
         id="stop388"
         offset="0.24157"
         style="stop-opacity:1;stop-color:#231f20" /><stop
         id="stop390"
         offset="0.39888"
         style="stop-opacity:1;stop-color:#4f4c4d" /><stop
         id="stop392"
         offset="0.51685"
         style="stop-opacity:1;stop-color:#7b7979" /><stop
         id="stop394"
         offset="0.61798"
         style="stop-opacity:1;stop-color:#7b7979" /><stop
         id="stop396"
         offset="0.7191"
         style="stop-opacity:1;stop-color:#4f4c4d" /><stop
         id="stop398"
         offset="0.92913"
         style="stop-opacity:1;stop-color:#918f90" /><stop
         id="stop400"
         offset="1"
         style="stop-opacity:1;stop-color:#918f90" /></linearGradient><clipPath
       id="clipPath412"
       clipPathUnits="userSpaceOnUse"><path
         id="path410"
         d="m 989.516,1272.93 c 0,0 -5.508,0.43 -8.661,0.96 -3.183,0.55 -7.48,2.56 -7.48,2.56 l -0.793,-1.19 c 0,0 3.086,-1.5 7.305,-2.37 4.211,-0.85 9.629,-1.19 9.629,-1.19 h 94.714 v 1.23" /></clipPath><clipPath
       id="clipPath418"
       clipPathUnits="userSpaceOnUse"><path
         id="path416"
         d="m 972.582,1276.45 h 111.648 v -4.75 H 972.582 Z" /></clipPath><linearGradient
       id="linearGradient428"
       spreadMethod="pad"
       gradientTransform="matrix(111.634,0,0,111.634,972.622,1274.16)"
       gradientUnits="userSpaceOnUse"
       y2="0"
       x2="1"
       y1="0"
       x1="0"><stop
         id="stop420"
         offset="0"
         style="stop-opacity:1;stop-color:#868484" /><stop
         id="stop422"
         offset="0.0629921"
         style="stop-opacity:1;stop-color:#868484" /><stop
         id="stop424"
         offset="0.979"
         style="stop-opacity:1;stop-color:#656263" /><stop
         id="stop426"
         offset="1"
         style="stop-opacity:1;stop-color:#656263" /></linearGradient><clipPath
       id="clipPath438"
       clipPathUnits="userSpaceOnUse"><path
         id="path436"
         d="m 1069.22,1403.63 c 0,0 26.12,-10 57.27,-30.07 28.26,-18.18 44.41,-34.16 44.41,-34.16 l -1.01,-0.95 c 0,0 -16.84,16.53 -44.3,33.89 -35.7,22.55 -56.99,29.91 -56.99,29.91" /></clipPath><clipPath
       id="clipPath444"
       clipPathUnits="userSpaceOnUse"><path
         id="path442"
         d="m 1068.6,1403.63 h 102.3 v -65.18 h -102.3 z" /></clipPath><linearGradient
       id="linearGradient454"
       spreadMethod="pad"
       gradientTransform="matrix(102.304,0,0,102.304,1068.6,1371.06)"
       gradientUnits="userSpaceOnUse"
       y2="0"
       x2="1"
       y1="0"
       x1="0"><stop
         id="stop446"
         offset="0"
         style="stop-opacity:1;stop-color:#393536" /><stop
         id="stop448"
         offset="0.0629921"
         style="stop-opacity:1;stop-color:#393536" /><stop
         id="stop450"
         offset="0.94751"
         style="stop-opacity:1;stop-color:#706d6e" /><stop
         id="stop452"
         offset="1"
         style="stop-opacity:1;stop-color:#706d6e" /></linearGradient><linearGradient
       id="linearGradient466"
       spreadMethod="pad"
       gradientTransform="matrix(48.6911,0,0,48.6911,868.945,1384.83)"
       gradientUnits="userSpaceOnUse"
       y2="0"
       x2="1"
       y1="0"
       x1="0"><stop
         id="stop458"
         offset="0"
         style="stop-opacity:1;stop-color:#393536" /><stop
         id="stop460"
         offset="0.0314961"
         style="stop-opacity:1;stop-color:#393536" /><stop
         id="stop462"
         offset="0.94751"
         style="stop-opacity:1;stop-color:#7b7979" /><stop
         id="stop464"
         offset="1"
         style="stop-opacity:1;stop-color:#7b7979" /></linearGradient><linearGradient
       id="linearGradient482"
       spreadMethod="pad"
       gradientTransform="matrix(365.852,269.948,-269.948,365.852,525.889,1227.63)"
       gradientUnits="userSpaceOnUse"
       y2="0"
       x2="1"
       y1="0"
       x1="0"><stop
         id="stop470"
         offset="0"
         style="stop-opacity:1;stop-color:#e9e9e9" /><stop
         id="stop472"
         offset="0.0505618"
         style="stop-opacity:1;stop-color:#e9e9e9" /><stop
         id="stop474"
         offset="0.42697"
         style="stop-opacity:1;stop-color:#ffffff" /><stop
         id="stop476"
         offset="0.80337"
         style="stop-opacity:1;stop-color:#ffffff" /><stop
         id="stop478"
         offset="0.95506"
         style="stop-opacity:1;stop-color:#e9e9e9" /><stop
         id="stop480"
         offset="1"
         style="stop-opacity:1;stop-color:#e9e9e9" /></linearGradient><linearGradient
       id="linearGradient502"
       spreadMethod="pad"
       gradientTransform="matrix(1.17476,1.82798,-1.82798,1.17476,1112.45,1358.86)"
       gradientUnits="userSpaceOnUse"
       y2="0"
       x2="1"
       y1="0"
       x1="0"><stop
         id="stop496"
         offset="0"
         style="stop-opacity:1;stop-color:#656263" /><stop
         id="stop498"
         offset="0.12632"
         style="stop-opacity:1;stop-color:#656263" /><stop
         id="stop500"
         offset="1"
         style="stop-opacity:1;stop-color:#bdbcbc" /></linearGradient><linearGradient
       id="linearGradient514"
       spreadMethod="pad"
       gradientTransform="matrix(-121.071,-209.7,209.7,-121.071,618.398,1203.34)"
       gradientUnits="userSpaceOnUse"
       y2="0"
       x2="1"
       y1="0"
       x1="0"><stop
         id="stop506"
         offset="0"
         style="stop-opacity:1;stop-color:#bdbcbc" /><stop
         id="stop508"
         offset="0.0786517"
         style="stop-opacity:1;stop-color:#bdbcbc" /><stop
         id="stop510"
         offset="0.92135"
         style="stop-opacity:1;stop-color:#393536" /><stop
         id="stop512"
         offset="1"
         style="stop-opacity:1;stop-color:#393536" /></linearGradient><clipPath
       id="clipPath524"
       clipPathUnits="userSpaceOnUse"><path
         id="path522"
         d="m 1305.96,984.02 c -24.29,-47.141 -49.95,-76.047 -49.95,-76.047 1.58,0.015 3.15,-0.137 4.81,-0.375 9.89,-1.539 16.81,0.035 16.81,0.035 h -0.01 c 38.12,55.469 66.36,122.747 66.36,192.627 0,0 -13.73,-69.06 -38.02,-116.24" /></clipPath><clipPath
       id="clipPath530"
       clipPathUnits="userSpaceOnUse"><path
         id="path528"
         d="m 1256.01,906.059 h 87.9688 v 194.199 H 1256.01 Z" /></clipPath><linearGradient
       id="linearGradient542"
       spreadMethod="pad"
       gradientTransform="matrix(-90.1902,0,0,90.1902,1344,1003.59)"
       gradientUnits="userSpaceOnUse"
       y2="0"
       x2="1"
       y1="0"
       x1="0"><stop
         id="stop532"
         offset="0"
         style="stop-opacity:1;stop-color:#bdbcbc" /><stop
         id="stop534"
         offset="0.016861"
         style="stop-opacity:1;stop-color:#bdbcbc" /><stop
         id="stop536"
         offset="0.48635084"
         style="stop-opacity:1;stop-color:#393536" /><stop
         id="stop538"
         offset="0.634827"
         style="stop-opacity:1;stop-color:#393536" /><stop
         id="stop540"
         offset="1"
         style="stop-opacity:1;stop-color:#393536" /></linearGradient></defs><g
     transform="matrix(1.3333333,0,0,-1.3333333,0,249.33333)"
     id="g10"><g
       transform="scale(0.1)"
       id="g12"><path
         id="path14"
         style="fill:#ffffff;fill-opacity:1;fill-rule:nonzero;stroke:none"
         d="M 1870,0 H 0 V 1870 H 1870 V 0" /><path
         id="path16"
         style="fill:#881211;fill-opacity:1;fill-rule:nonzero;stroke:none"
         d="m 151.957,587.762 h 98.641 c 34.105,0.258 47.738,0 59.031,-5.364 22.027,-10.726 22.027,-32.136 22.027,-38.269 0,-5.609 -0.535,-14.051 -6.297,-22.699 -6.027,-8.961 -14.168,-13.032 -20.195,-15.071 -2.101,-0.738 -4.207,-1.519 -6.57,-2.031 3.144,-0.246 6.304,-0.5 9.179,-1.269 4.723,-0.778 9.454,-2.547 13.379,-5.098 18.891,-12 18.891,-32.422 18.891,-38.789 0,-8.16 -1.305,-16.332 -4.715,-23.742 -3.672,-8.141 -10.234,-15.051 -18.101,-19.371 -13.122,-7.418 -30.954,-8.418 -59.012,-8.418 H 170.332 V 565.352 Z M 241.758,486.32 h -9.121 v -52.25 h 10.504 c 6.414,0 18.027,0.282 24.156,5.41 4.723,3.801 8.07,11.372 8.07,21.918 0,3 0,14.903 -9.191,21.141 -5.844,4.063 -17.738,3.781 -24.418,3.781 z m -9.121,72.289 v -44.968 h 9.957 c 6.113,0 16.902,0 22.195,3.808 3.34,2.442 7.52,8.129 7.52,18.949 0,5.153 -0.84,8.391 -1.68,10.852 -4.453,11.109 -17.176,11.359 -29.43,11.359" /><path
         id="path18"
         style="fill:#881211;fill-opacity:1;fill-rule:nonzero;stroke:none"
         d="m 419.109,558.32 h 10.786 c 10.589,0 30.746,0 30.746,-24.101 0,-23.809 -20.442,-23.27 -32.133,-23.547 h -9.399 z M 520.891,450.23 c -2.356,12.5 -5.516,28.579 -15.996,38.04 -8.661,8.171 -18.364,8.902 -25.969,9.929 13.637,2.313 41.965,6.903 41.965,45.41 0,25.532 -14.161,40.571 -42.746,43.379 -7.086,0.774 -13.911,0.774 -21.508,0.774 H 356.426 V 407.641 h 63.656 v 73.218 h 7.688 c 6.824,-0.507 18.269,-1.019 23.25,-10.218 2.371,-4.59 3.152,-8.141 6.05,-24.219 l 1.051,-7.16 c 2.082,-10.973 3.402,-18.352 3.926,-19.621 1.836,-7.411 3.937,-9.2 7.621,-12 h 64.336 c -6.305,6.121 -7.078,9.429 -11.274,32.648" /><path
         id="path20"
         style="fill:#881211;fill-opacity:1;fill-rule:nonzero;stroke:none"
         d="m 550.41,407.641 h 68.211 V 587.762 H 550.41 V 407.641" /><path
         id="path22"
         style="fill:#881211;fill-opacity:1;fill-rule:nonzero;stroke:none"
         d="M 761.723,445.66 H 717.125 V 587.762 H 648.922 V 407.641 h 112.801" /><path
         id="path24"
         style="fill:#881211;fill-opacity:1;fill-rule:nonzero;stroke:none"
         d="M 890.895,445.66 H 846.293 V 587.762 H 778.098 V 407.641 h 112.797" /><path
         id="path26"
         style="fill:#881211;fill-opacity:1;fill-rule:nonzero;stroke:none"
         d="m 907.262,407.641 h 68.211 V 587.762 H 907.262 V 407.641" /><path
         id="path28"
         style="fill:#881211;fill-opacity:1;fill-rule:nonzero;stroke:none"
         d="M 1136.14,587.762 H 1036.2 L 987.68,407.641 h 64.77 l 27.03,131.398 h 11.79 l 23.11,-131.398 h 64.53" /><path
         id="path30"
         style="fill:#881211;fill-opacity:1;fill-rule:nonzero;stroke:none"
         d="m 1363.17,587.762 h -55.89 l 0.79,-79.09 c 0.25,-7.16 0.25,-19.711 0.25,-26.863 -4.17,15.293 -10.4,23.293 -14.58,35.769 l -29.13,70.184 h -73.5 V 407.641 h 56.84 l -1.58,80.371 c 0,10.699 -0.25,19.957 -0.25,26.07 3.92,-12.004 10.64,-21.492 14.82,-33.223 l 30.2,-73.218 h 72.03" /><path
         id="path32"
         style="fill:#881211;fill-opacity:1;fill-rule:nonzero;stroke:none"
         d="m 1717.58,445.398 h -79.12 v 36.743 h 61.13 v 37.75 h -61.13 v 30.121 l 63.85,0.008 15.74,37.742 H 1577.23 V 407.641 h 140.35" /><path
         id="path34"
         style="fill:#881211;fill-opacity:1;fill-rule:nonzero;stroke:none"
         d="m 1382.52,520.641 c 0,39.949 35.92,72.308 76.98,72.308 h 25.92 c 40.52,0 76.09,-34.07 76.99,-73.25 h -65.47 v 8.949 c 0,11.813 -9.75,21.454 -21.86,21.672 l 0.45,0.012 h -0.9 l 0.45,-0.012 c -12.13,-0.218 -21.86,-9.859 -21.86,-21.672 V 463.16 c 0,-11.808 9.73,-21.461 21.86,-21.68 12.11,0.219 21.86,9.872 21.86,21.68 v 12.059 h 65.47 c -0.59,-39.469 -36.27,-71.309 -76.99,-71.309 h -25.92 c -41.06,0 -76.98,32.41 -76.98,72.32" /><path
         id="path36"
         style="fill:none;stroke:#231f20;stroke-width:4.84700012;stroke-linecap:butt;stroke-linejoin:miter;stroke-miterlimit:4;stroke-dasharray:none;stroke-opacity:1"
         d="m 961.117,1302.17 c 0,18.04 0,46.85 0,66.5 0,19.65 15.332,35.46 31.211,35.46 15.902,0 65.162,-14.27 99.062,-32.3 33.93,-18.04 79.14,-53.72 78.26,-54.37 -9.55,-7.11 -13.59,-15.26 -16.94,-19.58 -1.69,-2.16 -7.07,-10.75 -10.43,-14.11 -5.65,-5.66 -19.05,-6.25 -35.81,-6.25 -34.31,0 -88.16,0 -111.447,0 -23.281,0 -33.906,8.24 -33.906,24.65 z" /><path
         id="path38"
         style="fill:none;stroke:#231f20;stroke-width:4.84700012;stroke-linecap:butt;stroke-linejoin:miter;stroke-miterlimit:4;stroke-dasharray:none;stroke-opacity:1"
         d="m 908.793,1302.03 c 0,18.02 0,46.84 0,66.49 0,19.64 -15.332,35.46 -31.215,35.46 -15.883,0 -65.14,-14.26 -99.043,-32.3 -33.918,-18.03 -82.09,-53.8 -81.172,-54.37 3.043,-1.9 5.16,-2.78 9.457,-6.7 6.93,-6.36 13.368,-16 16.246,-20.15 6.286,-9.02 6.067,-13.08 40.391,-13.08 34.297,0 88.148,0 111.43,0 23.273,0 33.906,8.23 33.906,24.65 z" /><path
         id="path40"
         style="fill:none;stroke:#231f20;stroke-width:4.84700012;stroke-linecap:butt;stroke-linejoin:miter;stroke-miterlimit:4;stroke-dasharray:none;stroke-opacity:1"
         d="m 520.461,1095.61 c 0,204.62 185.574,370.48 414.504,370.48 228.915,0 414.495,-165.86 414.495,-370.48 0,-204.633 -185.58,-370.489 -414.495,-370.489 -228.93,0 -414.504,165.856 -414.504,370.489 z" /><path
         id="path42"
         style="fill:none;stroke:#231f20;stroke-width:4.84700012;stroke-linecap:butt;stroke-linejoin:miter;stroke-miterlimit:4;stroke-dasharray:none;stroke-opacity:1"
         d="m 985.609,1200.02 c 17.101,0 79.001,0 97.721,0 18.7,0 31.73,-8.73 31.73,-36.47 0,-27.71 -1.61,-54.64 -13.18,-88.82 -11.56,-34.18 -29.34,-66.76 -51.41,-82.636 -25.31,-19.114 -56.247,-19.914 -70.513,-19.914 -14.269,0 -19.394,9.675 -19.394,25.027 0,15.333 0,144.813 0,169.023 0,24.24 10.906,33.79 25.046,33.79 z" /><path
         id="path44"
         style="fill:none;stroke:#231f20;stroke-width:4.84700012;stroke-linecap:butt;stroke-linejoin:miter;stroke-miterlimit:4;stroke-dasharray:none;stroke-opacity:1"
         d="m 884.313,1199.86 c -17.106,0 -79.008,0 -97.715,0 -18.707,0 -31.758,-8.73 -31.758,-36.46 0,-27.72 1.621,-54.63 13.195,-88.83 11.574,-34.18 29.332,-66.74 51.399,-82.636 25.308,-19.106 56.257,-19.914 70.523,-19.914 14.266,0 19.395,9.695 19.395,25.031 0,15.349 0,144.809 0,169.039 0,24.23 -10.911,33.77 -25.039,33.77 z" /><path
         id="path46"
         style="fill:none;stroke:#231f20;stroke-width:4.84700012;stroke-linecap:butt;stroke-linejoin:miter;stroke-miterlimit:4;stroke-dasharray:none;stroke-opacity:1"
         d="m 909.566,861.121 c 0,29.012 -0.722,31.914 -48.605,50.055 -47.891,18.125 -69.106,22.34 -92.137,41.359 -20.113,16.602 -54.621,48.285 -69.652,137.835 -13.551,80.74 -28.969,123.59 -49.695,122.99 -30.102,-0.88 -43.059,-84.72 -38.825,-134.59 5.797,-68.2 42.578,-159.391 91.418,-208.235 66.422,-66.414 126.035,-84.156 153.075,-84.156 27.062,0 54.117,25.109 54.117,56.312 0,6.508 0.304,18.43 0.304,18.43 z" /><path
         id="path48"
         style="fill:none;stroke:#231f20;stroke-width:4.84700012;stroke-linecap:butt;stroke-linejoin:miter;stroke-miterlimit:4;stroke-dasharray:none;stroke-opacity:1"
         d="m 959.145,860.781 c 0,29.032 0.722,31.946 48.615,50.078 47.88,18.125 69.1,22.317 92.15,41.344 20.09,16.606 54.61,48.287 69.63,137.837 13.56,80.74 28.98,123.59 49.7,122.99 30.12,-0.88 43.07,-84.71 38.81,-134.59 -5.79,-68.19 -42.56,-159.358 -91.41,-208.213 -66.4,-66.426 -126.03,-84.176 -153.08,-84.176 -27.052,0 -54.122,25.121 -54.122,56.32 0,6.527 -0.293,18.41 -0.293,18.41 z" /><path
         id="path50"
         style="fill:none;stroke:#d3d2d2;stroke-width:2.69300008;stroke-linecap:butt;stroke-linejoin:miter;stroke-miterlimit:4;stroke-dasharray:none;stroke-opacity:1"
         d="m 951.695,1379.98 c 0,34.98 29.871,44.4 36.864,44.4 7.011,0 47.381,-1.61 107.941,-32.84 60.58,-31.22 93.67,-68.9 93.67,-74.02 0,-5.11 -14.79,-3.5 -24.23,-15.88 -9.41,-12.39 -19.1,-30.41 -46.56,-30.41 -27.44,0 -106.05,0 -129.2,0 -23.153,0 -38.485,14 -38.485,41.71 0,27.73 0,67.04 0,67.04 z" /><path
         id="path52"
         style="fill:none;stroke:#d3d2d2;stroke-width:2.69300008;stroke-linecap:butt;stroke-linejoin:miter;stroke-miterlimit:4;stroke-dasharray:none;stroke-opacity:1"
         d="m 995.023,1224.39 c 19.397,0 68.107,0 87.757,0 22.07,0 41.18,-11.85 41.18,-54.1 0,0 1.36,-35 -11.32,-78.61 -12.63,-43.6 -26.9,-80.2 -60.27,-105.242 -26.92,-20.719 -60.862,-19.375 -74.3,-19.375 -13.437,0 -25.293,9.144 -25.293,29.07 0,19.917 0,151.817 0,185.177 0,33.39 21.27,43.08 42.246,43.08 z" /><path
         id="path54"
         style="fill:none;stroke:#deddde;stroke-width:2.69300008;stroke-linecap:butt;stroke-linejoin:miter;stroke-miterlimit:4;stroke-dasharray:none;stroke-opacity:1"
         d="m 918.219,1379.82 c 0,34.98 -29.864,44.42 -36.867,44.42 -6.997,0 -47.383,-1.62 -107.934,-32.85 -60.57,-31.22 -93.672,-68.91 -93.672,-74.03 0,-5.1 14.797,-3.49 24.219,-15.87 9.426,-12.38 19.101,-30.42 46.566,-30.42 27.457,0 106.051,0 129.199,0 23.165,0 38.489,14 38.489,41.72 0,27.73 0,67.03 0,67.03 z" /><path
         id="path56"
         style="fill:none;stroke:#deddde;stroke-width:2.69300008;stroke-linecap:butt;stroke-linejoin:miter;stroke-miterlimit:4;stroke-dasharray:none;stroke-opacity:1"
         d="m 874.887,1224.24 c -19.367,0 -68.094,0 -87.742,0 -22.063,0 -41.188,-11.84 -41.188,-54.11 0,0 -1.34,-34.99 11.309,-78.6 12.656,-43.61 26.91,-80.21 60.297,-105.245 26.906,-20.722 60.832,-19.375 74.277,-19.375 13.476,0 25.312,9.153 25.312,29.074 0,19.916 0,151.806 0,185.176 0,33.38 -21.269,43.08 -42.265,43.08 z" /><path
         id="path58"
         style="fill:none;stroke:#d3d2d2;stroke-width:2.69300008;stroke-linecap:butt;stroke-linejoin:miter;stroke-miterlimit:4;stroke-dasharray:none;stroke-opacity:1"
         d="m 951.898,854.98 c 0,41.368 -1.472,52.973 46.426,69.661 47.896,16.687 77.026,18.578 114.626,65.297 25.17,31.262 35.51,65.702 42.82,112.452 0,0 6.52,42.2 16.68,79.07 10.07,36.52 31.91,55.15 51.52,55.15 19.57,0 55.85,-31.68 49.8,-157.92 -5.56,-78.59 -42.93,-159.495 -106.4,-222.991 -50.8,-50.777 -113.92,-76.898 -150.18,-76.898 -25.409,0 -65.292,14.519 -65.292,76.179 z" /><path
         id="path60"
         style="fill:none;stroke:#deddde;stroke-width:2.69300008;stroke-linecap:butt;stroke-linejoin:miter;stroke-miterlimit:4;stroke-dasharray:none;stroke-opacity:1"
         d="m 916.82,855.289 c 0,41.367 1.446,52.988 -46.437,69.672 -47.871,16.684 -77.02,18.57 -114.621,65.289 -25.157,31.27 -35.52,65.71 -42.813,112.46 0,0 -6.511,42.21 -16.687,79.08 -10.071,36.51 -31.922,55.13 -51.496,55.13 -19.594,0 -55.875,-31.67 -49.825,-157.9 5.555,-78.61 42.926,-159.508 106.414,-222.981 50.778,-50.777 113.903,-76.91 150.168,-76.91 25.411,0 65.297,14.5 65.297,76.16 z" /><path
         id="path62"
         style="fill:none;stroke:#deddde;stroke-width:2.01999998;stroke-linecap:butt;stroke-linejoin:miter;stroke-miterlimit:4;stroke-dasharray:none;stroke-opacity:1"
         d="m 522.527,1095.61 c 0,203.59 184.661,368.63 412.438,368.63 227.775,0 412.425,-165.04 412.425,-368.63 0,-203.594 -184.65,-368.649 -412.425,-368.649 -227.777,0 -412.438,165.055 -412.438,368.649 z" /><path
         id="path74"
         style="fill:url(#linearGradient72);fill-opacity:1;fill-rule:evenodd;stroke:none"
         d="m 1167.37,855.699 c -50.8,-50.777 -113.92,-76.898 -150.18,-76.898 -25.409,0 -65.292,14.519 -65.292,76.179 0,41.368 -1.472,52.973 46.426,69.661 47.896,16.687 77.026,18.578 114.626,65.297 25.17,31.262 35.51,65.702 42.82,112.452 0,0 6.52,42.2 16.68,79.07 10.07,36.52 31.91,55.15 51.52,55.15 19.57,0 55.85,-31.68 49.8,-157.92 -5.56,-78.59 -42.93,-159.495 -106.4,-222.991 z m -54.73,235.981 c -12.63,-43.6 -26.9,-80.2 -60.27,-105.242 -26.92,-20.719 -60.862,-19.375 -74.3,-19.375 -13.437,0 -25.293,9.144 -25.293,29.07 v 185.177 c 0,33.39 21.27,43.08 42.246,43.08 h 87.757 c 22.07,0 41.18,-11.85 41.18,-54.1 0,0 1.36,-35 -11.32,-78.61 z m -160.945,288.3 c 0,34.98 29.871,44.4 36.864,44.4 7.011,0 47.381,-1.61 107.941,-32.84 60.58,-31.22 93.67,-68.9 93.67,-74.02 0,-5.11 -14.79,-3.5 -24.23,-15.88 -9.41,-12.39 -19.1,-30.41 -46.56,-30.41 h -129.2 c -23.153,0 -38.485,14 -38.485,41.71 0,27.73 0,67.04 0,67.04 z m -33.476,-67.19 c 0,-27.72 -15.324,-41.72 -38.489,-41.72 H 750.531 c -27.465,0 -37.14,18.04 -46.566,30.42 -9.422,12.38 -24.219,10.77 -24.219,15.87 0,5.12 33.102,42.81 93.672,74.03 60.551,31.23 100.937,32.85 107.934,32.85 7.003,0 36.867,-9.44 36.867,-44.42 0,0 0,-39.3 0,-67.03 z m -1.067,-316.806 c 0,-19.921 -11.836,-29.074 -25.312,-29.074 -13.445,0 -47.371,-1.347 -74.277,19.375 -33.387,25.035 -47.641,61.635 -60.297,105.245 -12.649,43.61 -11.309,78.6 -11.309,78.6 0,42.27 19.125,54.11 41.188,54.11 h 87.742 c 20.996,0 42.265,-9.7 42.265,-43.08 z M 916.82,855.289 c 0,-61.66 -39.886,-76.16 -65.297,-76.16 -36.265,0 -99.39,26.133 -150.168,76.91 -63.488,63.473 -100.859,144.371 -106.414,222.981 -6.05,126.23 30.231,157.9 49.825,157.9 19.574,0 41.425,-18.62 51.496,-55.13 10.176,-36.87 16.687,-79.08 16.687,-79.08 7.293,-46.75 17.656,-81.19 42.813,-112.46 37.601,-46.719 66.75,-48.605 114.621,-65.289 47.883,-16.684 46.437,-28.305 46.437,-69.672 z m 18.145,610.801 c -228.93,0 -414.504,-165.86 -414.504,-370.48 0,-204.633 185.574,-370.489 414.504,-370.489 228.915,0 414.495,165.856 414.495,370.489 0,204.62 -185.58,370.48 -414.495,370.48" /><path
         id="path76"
         style="fill:none;stroke:#b2b1b1;stroke-width:1.34599996;stroke-linecap:butt;stroke-linejoin:miter;stroke-miterlimit:4;stroke-dasharray:none;stroke-opacity:1"
         d="m 951.695,1379.98 c 0,34.98 29.871,44.4 36.864,44.4 7.011,0 47.381,-1.61 107.941,-32.84 60.58,-31.22 93.67,-68.9 93.67,-74.02 0,-5.11 -14.79,-3.5 -24.23,-15.88 -9.41,-12.39 -19.1,-30.41 -46.56,-30.41 -27.44,0 -106.05,0 -129.2,0 -23.153,0 -38.485,14 -38.485,41.71 0,27.73 0,67.04 0,67.04 z" /><path
         id="path78"
         style="fill:none;stroke:#b2b1b1;stroke-width:1.34599996;stroke-linecap:butt;stroke-linejoin:miter;stroke-miterlimit:4;stroke-dasharray:none;stroke-opacity:1"
         d="m 995.023,1224.39 c 19.397,0 68.107,0 87.757,0 22.07,0 41.18,-11.85 41.18,-54.1 0,0 1.36,-35 -11.32,-78.61 -12.63,-43.6 -26.9,-80.2 -60.27,-105.242 -26.92,-20.719 -60.862,-19.375 -74.3,-19.375 -13.437,0 -25.293,9.144 -25.293,29.07 0,19.917 0,151.817 0,185.177 0,33.39 21.27,43.08 42.246,43.08 z" /><path
         id="path80"
         style="fill:none;stroke:#bdbcbc;stroke-width:1.34599996;stroke-linecap:butt;stroke-linejoin:miter;stroke-miterlimit:4;stroke-dasharray:none;stroke-opacity:1"
         d="m 918.219,1379.82 c 0,34.98 -29.864,44.42 -36.867,44.42 -6.997,0 -47.383,-1.62 -107.934,-32.85 -60.57,-31.22 -93.672,-68.91 -93.672,-74.03 0,-5.1 14.797,-3.49 24.219,-15.87 9.426,-12.38 19.101,-30.42 46.566,-30.42 27.457,0 106.051,0 129.199,0 23.165,0 38.489,14 38.489,41.72 0,27.73 0,67.03 0,67.03 z" /><path
         id="path82"
         style="fill:none;stroke:#bdbcbc;stroke-width:1.34599996;stroke-linecap:butt;stroke-linejoin:miter;stroke-miterlimit:4;stroke-dasharray:none;stroke-opacity:1"
         d="m 874.887,1224.24 c -19.367,0 -68.094,0 -87.742,0 -22.063,0 -41.188,-11.84 -41.188,-54.11 0,0 -1.34,-34.99 11.309,-78.6 12.656,-43.61 26.91,-80.21 60.297,-105.245 26.906,-20.722 60.832,-19.375 74.277,-19.375 13.476,0 25.312,9.153 25.312,29.074 0,19.916 0,151.806 0,185.176 0,33.38 -21.269,43.08 -42.265,43.08 z" /><path
         id="path84"
         style="fill:none;stroke:#bdbcbc;stroke-width:1.34599996;stroke-linecap:butt;stroke-linejoin:miter;stroke-miterlimit:4;stroke-dasharray:none;stroke-opacity:1"
         d="m 916.82,855.289 c 0,41.367 1.446,52.988 -46.437,69.672 -47.871,16.684 -77.02,18.57 -114.621,65.289 -25.157,31.27 -35.52,65.71 -42.813,112.46 0,0 -6.511,42.21 -16.687,79.08 -10.071,36.51 -31.922,55.13 -51.496,55.13 -19.594,0 -55.875,-31.67 -49.825,-157.9 5.555,-78.61 42.926,-159.508 106.414,-222.981 50.778,-50.777 113.903,-76.91 150.168,-76.91 25.411,0 65.297,14.5 65.297,76.16 z" /><path
         id="path86"
         style="fill:none;stroke:#b2b1b1;stroke-width:1.34599996;stroke-linecap:butt;stroke-linejoin:miter;stroke-miterlimit:4;stroke-dasharray:none;stroke-opacity:1"
         d="m 951.898,854.98 c 0,41.368 -1.472,52.973 46.426,69.661 47.896,16.687 77.026,18.578 114.626,65.297 25.17,31.262 35.51,65.702 42.82,112.452 0,0 6.52,42.2 16.68,79.07 10.07,36.52 31.91,55.15 51.52,55.15 19.57,0 55.85,-31.68 49.8,-157.92 -5.56,-78.59 -42.93,-159.495 -106.4,-222.991 -50.8,-50.777 -113.92,-76.898 -150.18,-76.898 -25.409,0 -65.292,14.519 -65.292,76.179 z" /><path
         id="path88"
         style="fill:none;stroke:#9c9a9b;stroke-width:0.40393999;stroke-linecap:butt;stroke-linejoin:miter;stroke-miterlimit:4;stroke-dasharray:none;stroke-opacity:1"
         d="m 522.527,1095.61 c 0,203.59 184.661,368.63 412.438,368.63 227.775,0 412.425,-165.04 412.425,-368.63 0,-203.594 -184.65,-368.649 -412.425,-368.649 -227.777,0 -412.438,165.055 -412.438,368.649 z" /><path
         id="path90"
         style="fill:none;stroke:#bdbcbc;stroke-width:1.34099996;stroke-linecap:butt;stroke-linejoin:miter;stroke-miterlimit:4;stroke-dasharray:none;stroke-opacity:1"
         d="m 522.527,1095.61 c 0,203.59 184.661,368.63 412.438,368.63 227.775,0 412.425,-165.04 412.425,-368.63 0,-203.594 -184.65,-368.649 -412.425,-368.649 -227.777,0 -412.438,165.055 -412.438,368.649 z" /><path
         id="path102"
         style="fill:url(#linearGradient100);fill-opacity:1;fill-rule:evenodd;stroke:none"
         d="m 952.777,1181.31 c 0,-33.36 0,-165.26 0,-185.177 0,-19.926 11.856,-29.07 25.293,-29.07 13.438,0 47.38,-1.344 74.3,19.375 33.37,25.042 47.64,61.642 60.27,105.242 12.68,43.61 11.32,78.61 11.32,78.61 0,42.25 -19.11,54.1 -41.18,54.1 -19.65,0 -68.36,0 -87.757,0 -20.976,0 -42.246,-9.69 -42.246,-43.08 z m 32.832,18.71 c 17.101,0 79.001,0 97.721,0 18.7,0 31.73,-8.73 31.73,-36.47 0,-27.71 -1.61,-54.64 -13.18,-88.82 -11.56,-34.18 -29.34,-66.76 -51.41,-82.636 -25.31,-19.114 -56.247,-19.914 -70.513,-19.914 -14.269,0 -19.394,9.675 -19.394,25.027 0,15.333 0,144.813 0,169.023 0,24.24 10.906,33.79 25.046,33.79" /><path
         id="path118"
         style="fill:url(#linearGradient116);fill-opacity:1;fill-rule:evenodd;stroke:none"
         d="m 918.219,1379.82 c 0,34.98 -29.864,44.42 -36.867,44.42 -6.997,0 -47.383,-1.62 -107.934,-32.85 -60.57,-31.22 -93.672,-68.91 -93.672,-74.03 0,-5.1 14.797,-3.49 24.219,-15.87 9.426,-12.38 19.101,-30.42 46.566,-30.42 27.457,0 106.051,0 129.199,0 23.165,0 38.489,14 38.489,41.72 0,27.73 0,67.03 0,67.03 z m -43.332,-102.44 c -23.282,0 -77.133,0 -111.43,0 -34.324,0 -33.723,3.71 -40.391,13.08 -3.402,4.79 -10.054,14.77 -15.8,19.81 -4.688,4.11 -8.094,5.84 -9.903,7.04 -0.898,0.6 47.254,36.34 81.172,54.37 33.903,18.04 83.16,32.3 99.043,32.3 15.883,0 31.215,-15.82 31.215,-35.46 0,-19.65 0,-48.47 0,-66.49 0,-16.42 -10.633,-24.65 -33.906,-24.65" /><path
         id="path130"
         style="fill:url(#linearGradient128);fill-opacity:1;fill-rule:evenodd;stroke:none"
         d="m 874.887,1224.24 c -19.367,0 -68.094,0 -87.742,0 -22.063,0 -41.188,-11.84 -41.188,-54.11 0,0 -1.34,-34.99 11.309,-78.6 12.656,-43.61 26.91,-80.21 60.297,-105.245 26.906,-20.722 60.832,-19.375 74.277,-19.375 13.476,0 25.312,9.153 25.312,29.074 0,19.916 0,151.806 0,185.176 0,33.38 -21.269,43.08 -42.265,43.08 z m 34.465,-58.15 c 0,-24.23 0,-153.69 0,-169.039 0,-15.336 -5.129,-25.031 -19.395,-25.031 -14.266,0 -45.215,0.808 -70.523,19.914 -22.067,15.896 -39.825,48.456 -51.399,82.636 -11.574,34.2 -13.195,61.11 -13.195,88.83 0,27.73 13.051,36.46 31.758,36.46 18.707,0 80.609,0 97.715,0 14.128,0 25.039,-9.54 25.039,-33.77" /><path
         id="path144"
         style="fill:url(#radialGradient142);fill-opacity:1;fill-rule:evenodd;stroke:none"
         d="m 1258.05,1078.44 c -5.79,-68.19 -42.56,-159.358 -91.41,-208.213 -66.4,-66.426 -126.03,-84.176 -153.08,-84.176 -27.052,0 -54.122,25.121 -54.122,56.32 0,6.527 -0.293,18.41 -0.293,18.41 0,29.032 0.722,31.946 48.615,50.078 47.88,18.125 69.1,22.317 92.15,41.344 20.09,16.606 54.61,48.287 69.63,137.837 13.56,80.74 28.98,123.59 49.7,122.99 30.12,-0.88 43.07,-84.71 38.81,-134.59 z m -34.08,158.17 c -19.61,0 -41.45,-18.63 -51.52,-55.15 -10.16,-36.87 -16.68,-79.07 -16.68,-79.07 -7.31,-46.75 -17.65,-81.19 -42.82,-112.452 -37.6,-46.719 -66.73,-48.61 -114.626,-65.297 -47.898,-16.688 -46.426,-28.293 -46.426,-69.661 0,-61.66 39.883,-76.179 65.292,-76.179 36.26,0 99.38,26.121 150.18,76.898 63.47,63.496 100.84,144.401 106.4,222.991 6.05,126.24 -30.23,157.92 -49.8,157.92" /><path
         id="path158"
         style="fill:url(#radialGradient156);fill-opacity:1;fill-rule:evenodd;stroke:none"
         d="m 909.262,842.691 c 0,-31.203 -27.055,-56.312 -54.117,-56.312 -27.04,0 -86.653,17.742 -153.075,84.156 -48.84,48.844 -85.621,140.035 -91.418,208.235 -4.234,49.87 8.723,133.71 38.825,134.59 20.726,0.6 36.144,-42.25 49.695,-122.99 15.031,-89.55 49.539,-121.233 69.652,-137.835 23.031,-19.019 44.246,-23.234 92.137,-41.359 47.883,-18.141 48.605,-21.043 48.605,-50.055 0,0 -0.304,-11.922 -0.304,-18.43 z m -38.879,82.27 c -47.871,16.684 -77.02,18.57 -114.621,65.289 -25.157,31.27 -35.52,65.71 -42.813,112.46 0,0 -6.511,42.21 -16.687,79.08 -10.071,36.51 -31.922,55.13 -51.496,55.13 -19.594,0 -55.875,-31.67 -49.825,-157.9 5.555,-78.61 42.926,-159.508 106.414,-222.981 50.778,-50.777 113.903,-76.91 150.168,-76.91 25.411,0 65.297,14.5 65.297,76.16 0,41.367 1.446,52.988 -46.437,69.672" /><path
         id="path178"
         style="fill:url(#linearGradient176);fill-opacity:1;fill-rule:evenodd;stroke:none"
         d="m 1152.71,1297.88 c -1.69,-2.16 -7.07,-10.75 -10.43,-14.11 -5.65,-5.66 -19.05,-6.25 -35.81,-6.25 H 995.023 c -23.281,0 -33.906,8.24 -33.906,24.65 v 66.5 c 0,19.65 15.332,35.46 31.211,35.46 15.902,0 65.162,-14.27 99.062,-32.3 33.93,-18.04 79.14,-53.72 78.26,-54.37 -9.55,-7.11 -13.59,-15.26 -16.94,-19.58 z m -56.21,93.66 c -60.56,31.23 -100.93,32.84 -107.941,32.84 -6.993,0 -36.864,-9.42 -36.864,-44.4 0,0 0,-39.31 0,-67.04 0,-27.71 15.332,-41.71 38.485,-41.71 h 129.2 c 27.46,0 37.15,18.02 46.56,30.41 9.44,12.38 24.23,10.77 24.23,15.88 0,5.12 -33.09,42.8 -93.67,74.02" /><path
         id="path196"
         style="fill:url(#linearGradient194);fill-opacity:1;fill-rule:evenodd;stroke:none"
         d="m 694.16,1317.21 c 0,0 0,0 -5.051,-0.32 -4.402,-0.28 -6.261,0.1 -6.261,0.1 0,0 2.058,-1.6 6.332,-3.2 4.277,-1.61 9.39,-3.97 12.777,-7.34 3.391,-3.4 7.481,-9.46 10.813,-13.88 3.316,-4.42 7.027,-8.69 9.753,-10.84 2.704,-2.14 5.426,-2.38 6.75,-2.64 1.68,-0.36 4.707,-0.1 4.707,-0.1 0,0 -3.445,-0.06 -7.269,3.76 -2.805,2.82 -5.273,6.95 -9.27,12.46 -3.304,4.52 -7.015,9.58 -11.226,13.31 -5.36,4.8 -12.055,8.69 -12.055,8.69" /><path
         id="path212"
         style="fill:url(#linearGradient210);fill-opacity:1;fill-rule:evenodd;stroke:none"
         d="m 953.512,1370.65 c 0,0 0,3.7 0,10.83 0,7.15 4.148,21.22 9.91,26.98 7.383,7.38 17.519,13.84 25.82,13.84 8.281,0 20.748,-1.85 30.668,-4.16 9.89,-2.3 21.43,-5.76 21.43,-5.76 l -12.68,-13.24 c 0,0 -23.45,6.33 -32.855,7.26 -10.489,1.05 -19.942,-3.11 -26.621,-9.8 -6.758,-6.74 -7.598,-17.64 -9.454,-19.49 -1.835,-1.84 -6.218,-6.46 -6.218,-6.46" /><path
         id="path228"
         style="fill:url(#linearGradient226);fill-opacity:1;fill-rule:evenodd;stroke:none"
         d="m 782.605,1391.61 c 48.086,22.93 94.329,29.02 94.329,29.02 0,0 -54.907,-13.78 -92.641,-34.1 -37.715,-20.32 -78.594,-46.67 -78.594,-46.67 0,0 26.211,27.57 76.906,51.75" /><path
         id="path244"
         style="fill:url(#linearGradient242);fill-opacity:1;fill-rule:evenodd;stroke:none"
         d="m 749.945,1180.49 c 0,0 4.547,23.4 10.172,29.01 5.613,5.64 14.871,11.26 27.196,11.26 12.339,0 91.789,0 91.789,0 0,0 -81.629,-3.27 -89.247,-3.27 -7.625,0 -18.312,-3.44 -23.941,-9.08 -5.605,-5.61 -15.969,-27.92 -15.969,-27.92" /><path
         id="path260"
         style="fill:url(#linearGradient258);fill-opacity:1;fill-rule:evenodd;stroke:none"
         d="m 954.945,1180.49 c 0,0 1.934,20.78 10.157,29.01 5.636,5.64 14.882,11.26 27.207,11.26 12.341,0 91.781,0 91.781,0 0,0 -81.62,-3.27 -89.242,-3.27 -7.618,0 -17.832,-3.97 -23.946,-9.08 -9.871,-8.22 -15.957,-27.92 -15.957,-27.92" /><path
         id="path276"
         style="fill:url(#linearGradient274);fill-opacity:1;fill-rule:evenodd;stroke:none"
         d="m 640.891,1232.97 c -13.7,-1.45 -47.899,-33.87 -42.567,-150.92 1.692,-62.38 44.989,-142.663 44.989,-142.663 0,0 -39.27,84.163 -40.637,145.093 0,41.63 3.469,74.44 10.887,99.03 9.269,30.81 23.871,42.11 31.687,43.65 11.492,2.27 18.188,-2.94 25.426,-8.46 7.898,-6.06 21.41,-24.5 21.41,-24.5 0,0 -10.676,19.63 -23.641,30.06 -13,10.49 -19.988,9.51 -27.554,8.71" /><path
         id="path292"
         style="fill:url(#linearGradient290);fill-opacity:1;fill-rule:evenodd;stroke:none"
         d="m 791.555,952.258 c 23.804,-15.332 55.437,-23.227 72.394,-28.367 22.766,-6.914 34.746,-14.868 41.387,-21.512 6.055,-6.051 8.164,-20.223 8.164,-20.223 0,0 -2.41,14.172 -22.227,24.508 -13.578,7.102 -28.207,11.629 -50.843,19.199 -31.934,10.653 -48.922,19.75 -59.867,28.84 -17.286,14.356 -27.375,30 -33.258,42.715 -5.86,12.722 -8.25,17.762 -8.25,17.762 0,0 16.136,-30.485 28.363,-42.707 12.23,-12.231 24.137,-20.215 24.137,-20.215" /><path
         id="path308"
         style="fill:url(#linearGradient306);fill-opacity:1;fill-rule:evenodd;stroke:none"
         d="m 956.07,870.059 c 0,0 -0.09,24.507 9.102,33.703 7.187,7.16 21.453,13.715 37.018,19.011 0,0 45.35,13.09 65.61,23.383 20.27,10.289 44.17,29.481 65.05,67.544 22.23,40.46 23.87,65.7 23.87,65.7 0,0 -0.48,-35 -21.77,-75.45 -19.95,-37.93 -41.7,-52.419 -60.17,-62.208 -29.48,-15.633 -51.07,-18.59 -72.72,-25.902 -22.181,-7.52 -33.833,-14.098 -38.822,-21.578 -4.992,-7.485 -7.168,-24.203 -7.168,-24.203" /><path
         id="path324"
         style="fill:url(#linearGradient322);fill-opacity:1;fill-rule:evenodd;stroke:none"
         d="m 1228.4,1233.45 c 10.98,-2.08 27.03,-17.97 34.96,-48.43 7.89,-30.25 10.99,-69.66 8.49,-103.88 -2.49,-34.21 -7.99,-53.19 -7.99,-53.19 0,0 11.97,62.18 2.51,116.37 -9.5,54.18 -24.48,76.21 -40.33,79.22 -9.49,1.81 -22.77,-2.43 -33.38,-18.98 -27.29,-42.59 -31.97,-96.89 -31.97,-96.89 0,0 6.31,55.21 18.38,85.35 11.17,27.98 31.76,43.76 49.33,40.43" /><path
         id="path344"
         style="fill:url(#linearGradient342);fill-opacity:1;fill-rule:evenodd;stroke:none"
         d="m 1172.35,1317.07 c 0,0 2.61,-0.47 7.24,-0.83 5.8,-0.44 8.46,0.18 8.46,0.18 0,0 -7.57,-1.9 -13.2,-5.1 -5.26,-3 -8.88,-6.7 -13.75,-13.12 -6.53,-8.57 -11.15,-16.01 -20.04,-19.77 -11.79,-4.98 -22.31,-2.18 -22.31,-2.18 0,0 17.79,-0.9 25.03,6.36 4.96,4.93 6.65,8.37 10.15,13.44 2.26,3.27 6.7,9.85 8.61,12.09 7.27,8.52 9.81,8.93 9.81,8.93" /><path
         id="path354"
         style="fill:url(#linearGradient352);fill-opacity:1;fill-rule:evenodd;stroke:none"
         d="m 1171,1319.31 c 0,0 3.23,-0.74 8.32,-1.13 4.04,-0.32 8.73,-0.09 8.73,-0.09 0,0 -3.94,6.67 -9.47,12.18 -5.51,5.53 -11.02,10.26 -11.02,10.26 l -8.34,-11.15 c 0,0 3.8,-3.18 6.89,-5.75 3.06,-2.57 4.89,-4.32 4.89,-4.32" /><path
         id="path356"
         style="fill:#ffffff;fill-opacity:1;fill-rule:evenodd;stroke:none"
         d="m 1202.56,916.773 10.37,-6.132 10.57,16.183 -11.36,6.418" /><g
         id="g358"><g
           clip-path="url(#clipPath364)"
           id="g360"><path
             id="path376"
             style="fill:url(#linearGradient374);fill-opacity:1;fill-rule:nonzero;stroke:none"
             d="m 752.984,1272.93 h 107.625 v -1.23 H 752.984 v 1.23" /></g></g><g
         id="g378"><g
           clip-path="url(#clipPath384)"
           id="g380"><path
             id="path404"
             style="fill:url(#linearGradient402);fill-opacity:1;fill-rule:nonzero;stroke:none"
             d="m 989.516,1272.93 h 94.714 v -1.23 h -94.714 v 1.23" /></g></g><g
         id="g406"><g
           clip-path="url(#clipPath412)"
           id="g408"><g
             clip-path="url(#clipPath418)"
             id="g414"><path
               id="path430"
               style="fill:url(#linearGradient428);fill-opacity:1;fill-rule:nonzero;stroke:none"
               d="m 986,1271 v 1 h -7 v 1 h -4 v 1 h -2 v 1 h -1 v 1 h 1 v 1 h 2 v -1 h 2 v -1 h 4 v -1 h 8 v -1 h 96 v -2" /></g></g></g><g
         id="g432"><g
           clip-path="url(#clipPath438)"
           id="g434"><g
             clip-path="url(#clipPath444)"
             id="g440"><path
               id="path456"
               style="fill:url(#linearGradient454);fill-opacity:1;fill-rule:nonzero;stroke:none"
               d="m 1169,1338 v 1 h -1 v 1 h -1 v 1 h -1 v 1 h -2 v 1 h -1 v 1 h -1 v 1 h -1 v 1 h -1 v 1 h -1 v 1 h -2 v 1 h -1 v 1 h -1 v 1 h -1 v 1 h -2 v 1 h -1 v 1 h -1 v 1 h -1 v 1 h -2 v 1 h -1 v 1 h -1 v 1 h -2 v 1 h -1 v 1 h -2 v 1 h -1 v 1 h -1 v 1 h -2 v 1 h -1 v 1 h -2 v 1 h -1 v 1 h -2 v 1 h -1 v 1 h -2 v 1 h -1 v 1 h -2 v 1 h -2 v 1 h -1 v 1 h -2 v 1 h -1 v 1 h -2 v 1 h -2 v 1 h -1 v 1 h -2 v 1 h -2 v 1 h -2 v 1 h -1 v 1 h -2 v 1 h -2 v 1 h -2 v 1 h -2 v 1 h -2 v 1 h -1 v 1 h -2 v 1 h -2 v 1 h -2 v 1 h -2 v 1 h -2 v 1 h -2 v 1 h -3 v 1 h -2 v 1 h -2 v 1 h -2 v 1 h -3 v 1 h -2 v 1 h -1 v 2 h 3 v -1 h 3 v -1 h 2 v -1 h 2 v -1 h 2 v -1 h 3 v -1 h 2 v -1 h 2 v -1 h 2 v -1 h 2 v -1 h 2 v -1 h 2 v -1 h 2 v -1 h 2 v -1 h 2 v -1 h 1 v -1 h 2 v -1 h 2 v -1 h 2 v -1 h 2 v -1 h 1 v -1 h 2 v -1 h 2 v -1 h 2 v -1 h 1 v -1 h 2 v -1 h 2 v -1 h 1 v -1 h 2 v -1 h 1 v -1 h 2 v -1 h 1 v -1 h 2 v -1 h 1 v -1 h 2 v -1 h 1 v -1 h 2 v -1 h 1 v -1 h 2 v -1 h 1 v -1 h 1 v -1 h 2 v -1 h 1 v -1 h 2 v -1 h 1 v -1 h 1 v -1 h 2 v -1 h 1 v -1 h 1 v -1 h 1 v -1 h 2 v -1 h 1 v -1 h 1 v -1 h 1 v -1 h 2 v -1 h 1 v -1 h 1 v -1 h 1 v -1 h 1 v -1 h 1 v -1 h 2 v -1 h 1 v -1 h 1 v -1 h 1 v -3" /></g></g></g><path
         id="path468"
         style="fill:url(#linearGradient466);fill-opacity:1;fill-rule:evenodd;stroke:none"
         d="m 917.641,1346.04 c 0,0 -0.086,21.52 -0.086,32.16 0,16.96 -3.567,25.98 -13.313,34.51 -9.023,7.9 -18.113,10.76 -22.285,10.92 -4.773,0.16 -13.016,-0.96 -13.016,-0.96 l 0.715,-1.13 c 0,0 8.004,1.09 12.653,0.93 4.043,-0.16 12.578,-3.21 21.328,-10.88 9.453,-8.26 13.222,-19.62 13.222,-36.07 0,-10.31 0.059,-28.31 0.059,-28.31" /><path
         id="path484"
         style="fill:url(#linearGradient482);fill-opacity:1;fill-rule:evenodd;stroke:none"
         d="m 911.82,1465.53 c -172.511,-8.48 -316.898,-111.25 -369.785,-251.62 0,0 40.055,109.67 168.043,183.43 107.985,62.25 201.742,68.19 201.742,68.19" /><path
         id="path486"
         style="fill:#ffffff;fill-opacity:1;fill-rule:evenodd;stroke:none"
         d="m 1116.98,1091.68 c -12.66,-43.6 -22.88,-68.8 -52.1,-100.371 -14.68,-13.805 -32.59,-21.168 -43,-23.996 0,0 35.82,2 61.68,37.967 28.97,40.26 33.42,86.4 33.42,86.4" /><path
         id="path488"
         style="fill:#ffffff;fill-opacity:1;fill-rule:evenodd;stroke:none"
         d="m 1277.68,1072.66 c -7.29,-76.265 -44.46,-158.125 -105.97,-219.609 -16.65,-16.672 -34.84,-30.571 -52.78,-41.879 0,0 55.01,21.887 106.95,94.34 54.61,79.183 51.8,167.148 51.8,167.148" /><path
         id="path490"
         style="fill:#ffffff;fill-opacity:1;fill-rule:evenodd;stroke:none"
         d="m 832.246,1420 c -7.383,-0.88 -18.125,0.17 -64.293,-21.89 -61.473,-29.38 -92.316,-74.38 -92.316,-79.48 0,0 15.316,28.35 69.679,61.42 54.102,32.92 86.93,39.95 86.93,39.95" /><path
         id="path492"
         style="fill:#ffffff;fill-opacity:1;fill-rule:evenodd;stroke:none"
         d="m 809.844,1228.21 c -23.848,0 -38.383,1.46 -50.844,-8.75 -12.047,-9.51 -17.164,-28.38 -17.164,-49.33 0,0 -6.684,34.37 14.91,52.49 17.961,15.08 53.098,5.59 53.098,5.59" /><path
         id="path494"
         style="fill:#ffffff;fill-opacity:1;fill-rule:evenodd;stroke:none"
         d="m 675.445,1228.01 c -8.613,6.66 -19.769,13.43 -31.265,13.08 -21.43,-0.65 -51.11,-28.32 -53.735,-121.7 0,0 -6.097,46.34 17.739,97.92 11.722,25.42 30.882,32.48 44.214,28.06 12.715,-4.21 23.047,-17.36 23.047,-17.36" /><path
         id="path504"
         style="fill:url(#linearGradient502);fill-opacity:1;fill-rule:evenodd;stroke:none"
         d="m 1122,1352.87 c 15.73,-10.78 41.52,-29.94 41.52,-29.94 0,0 -21.29,18.53 -40.18,31.42 -31,21.1 -66.77,32.97 -66.77,32.97 0,0 34.82,-13.55 65.43,-34.45" /><path
         id="path516"
         style="fill:url(#linearGradient514);fill-opacity:1;fill-rule:evenodd;stroke:none"
         d="m 559.871,964.285 c -1.234,2.028 -2.898,2.949 -4.223,2.949 -1.324,0 -3.789,1.852 -3.789,1.852 l 0.016,-0.008 c -16.305,39.422 -25.203,82.032 -25.203,126.532 0,50.37 11.426,98.38 32.09,142.05 0,0 -25.379,-67.32 -25.379,-142.42 0,-75.08 26.488,-130.955 26.488,-130.955" /><g
         id="g518"><g
           clip-path="url(#clipPath524)"
           id="g520"><g
             clip-path="url(#clipPath530)"
             id="g526"><path
               id="path544"
               style="fill:url(#linearGradient542);fill-opacity:1;fill-rule:nonzero;stroke:none"
               d="m 1266,906 v 1 h -10 v 3 h 1 v 1 h 1 v 1 h 1 v 1 h 1 v 1 h 1 v 2 h 1 v 1 h 1 v 1 h 1 v 2 h 1 v 1 h 1 v 1 h 1 v 2 h 1 v 1 h 1 v 1 h 1 v 2 h 1 v 1 h 1 v 1 h 1 v 2 h 1 v 1 h 1 v 2 h 1 v 1 h 1 v 2 h 1 v 1 h 1 v 2 h 1 v 1 h 1 v 2 h 1 v 1 h 1 v 2 h 1 v 1 h 1 v 2 h 1 v 1 h 1 v 2 h 1 v 2 h 1 v 1 h 1 v 2 h 1 v 2 h 1 v 1 h 1 v 2 h 1 v 2 h 1 v 1 h 1 v 2 h 1 v 2 h 1 v 2 h 1 v 1 h 1 v 2 h 1 v 2 h 1 v 2 h 1 v 2 h 1 v 2 h 1 v 2 h 1 v 2 h 1 v 1 h 1 v 3 h 1 v 2 h 1 v 2 h 1 v 2 h 1 v 3 h 1 v 2 h 1 v 2 h 1 v 3 h 1 v 2 h 1 v 3 h 1 v 2 h 1 v 3 h 1 v 3 h 1 v 2 h 1 v 3 h 1 v 3 h 1 v 3 h 1 v 3 h 1 v 3 h 1 v 3 h 1 v 3 h 1 v 4 h 1 v 3 h 1 v 3 h 1 v 4 h 1 v 3 h 1 v 4 h 1 v 4 h 1 v 3 h 1 v 4 h 1 v 4 h 1 v 4 h 1 v 4 h 1 v 5 h 1 v 4 h 1 v 5 h 1 v -23 h -1 v -9 h -1 v -7 h -1 v -7 h -1 v -7 h -1 v -4 h -1 v -4 h -1 v -5 h -1 v -4 h -1 v -4 h -1 v -4 h -1 v -3 h -1 v -4 h -1 v -3 h -1 v -3 h -1 v -3 h -1 v -3 h -1 v -3 h -1 v -3 h -1 v -3 h -1 v -2 h -1 v -3 h -1 v -2 h -1 v -3 h -1 v -2 h -1 v -2 h -1 v -3 h -1 v -2 h -1 v -3 h -1 v -2 h -1 v -2 h -1 v -2 h -1 v -2 h -1 v -2 h -1 v -2 h -1 v -2 h -1 v -2 h -1 v -2 h -1 v -2 h -1 v -2 h -1 v -2 h -1 v -2 h -1 v -2 h -1 v -1 h -1 v -2 h -1 v -2 h -1 v -2 h -1 v -1 h -1 v -2 h -1 v -2 h -1 v -2 h -1 v -1 h -1 v -2 h -1 v -2 h -1 v -1 h -1 v -2 h -1 v -1 h -1 v -2 h -1 v -2 h -1 v -1 h -1 v -2 h -1 v -1 h -1 v -2 h -1 v -1 h -1 v -2 h -1 v -1 h -1 v -1 h -7 v -1" /></g></g></g><path
         id="path546"
         style="fill:#231f20;fill-opacity:1;fill-rule:evenodd;stroke:none"
         d="m 1140.06,1061.86 c -0.13,-3.56 -2.97,-10.36 -5.23,-17.5 -4.4,-13.88 -12.33,-32.38 -22.1,-47.192 0,0 -15.64,-25.648 -45.05,-42.93 -17.91,-10.539 -43.75,-16.113 -67.58,-24.402 0,0 -33.377,-9.992 -42.623,-21.113 -11.614,-13.977 -10.891,-27.59 -10.891,-46.262 0,-18.652 2.461,-36.59 8.945,-52.262 6.77,-16.308 29.883,-38.121 60.799,-38.121 39.01,0 81.9,19.051 111.9,36.152 38.32,21.821 64.72,42.29 95.4,79.844 32.98,40.356 51.16,75.196 58.73,81.981 8,7.164 13.24,6.726 16,7.258 20.97,4.117 30.92,36.347 30.92,36.347 -9.33,-43.23 -60.54,-119.535 -51.53,-105.707 -60.11,-92.152 -196.53,-175.473 -343.84,-175.473 -175.726,0 -324.523,97.711 -382.086,236.891 -13.617,32.899 -22.484,68.219 -24.504,104.839 -1.113,20.12 -0.3,31.96 -0.379,33.54 0,0 0.731,-22.61 3.911,-25.51 2.937,-2.69 3.203,-8.1 3.203,-8.1 34.593,-229.761 244.152,-296.031 314.863,-302.378 18.738,-1.703 29.379,-0.203 44.719,8.777 29.238,17.063 31.113,51.012 31.113,81.012 0,29.976 0.215,36.332 -14.16,50.715 -14.395,14.39 -56.195,21.781 -74.582,27.828 -18.375,6.027 -29.953,11.406 -38.02,16.5 -25.941,16.336 -37.953,37.183 -44.527,47.846 0,0 2.769,-3.53 4.105,-5.116 1.02,-1.242 12.563,-17.191 37.684,-34.469 13.965,-9.597 27.047,-14.125 52.031,-18.546 34.621,-6.153 59.981,-4.918 87.645,-4.918 60.383,0 98.194,9.925 117.344,18.57 15.23,6.879 28.59,16.871 39.29,26.949 6.32,5.981 12.19,11.629 18.87,21.04 2.39,3.38 5.34,5.97 15.8,25.37" /><path
         id="path548"
         style="fill:#ffffff;fill-opacity:1;fill-rule:evenodd;stroke:none"
         d="M 551.875,969.078 C 608.285,832.672 762.992,734.32 935.211,734.32 c 144.369,0 270.859,68.34 341.219,170.793 37.38,54.375 66.82,121.997 66.82,190.497 0,-69.89 -21.98,-135.176 -60.09,-190.665 C 1211.35,800.422 1082.27,730.66 934.965,730.66 c -175.731,0 -325.535,99.219 -383.09,238.418 l -0.016,0.008" /></g></g></svg>