<?xml version="1.0" encoding="UTF-8" standalone="no"?>
<svg
   xmlns:dc="http://purl.org/dc/elements/1.1/"
   xmlns:cc="http://creativecommons.org/ns#"
   xmlns:rdf="http://www.w3.org/1999/02/22-rdf-syntax-ns#"
   xmlns:svg="http://www.w3.org/2000/svg"
   xmlns="http://www.w3.org/2000/svg"
   viewBox="0 0 1048 646.66669"
   height="646.66669"
   width="1048"
   xml:space="preserve"
   id="svg2"
   version="1.1"><metadata
     id="metadata8"><rdf:RDF><cc:Work
         rdf:about=""><dc:format>image/svg+xml</dc:format><dc:type
           rdf:resource="http://purl.org/dc/dcmitype/StillImage" /></cc:Work></rdf:RDF></metadata><defs
     id="defs6"><clipPath
       id="clipPath18"
       clipPathUnits="userSpaceOnUse"><path
         id="path16"
         d="M 0,485 H 786 V 0 H 0 Z" /></clipPath></defs><g
     transform="matrix(1.3333333,0,0,-1.3333333,0,646.66667)"
     id="g10"><g
       id="g12"><g
         clip-path="url(#clipPath18)"
         id="g14"><g
           transform="translate(342.3867,453.8369)"
           id="g20"><path
             id="path22"
             style="fill:#e92128;fill-opacity:1;fill-rule:nonzero;stroke:none"
             d="M 0,0 C -5.956,0 -9.481,-0.366 -9.481,-0.366 74.76,-19.171 90.013,-107.739 90.013,-107.739 102.817,-179.647 51.598,-224.963 51.598,-224.963 204.281,-210.184 176.7,-68.336 176.7,-68.336 155.029,-116.603 136.311,-128.425 136.311,-128.425 125.59,-9.665 30.632,0 0,0" /></g><g
           transform="translate(392.9688,421.333)"
           id="g24"><path
             id="path26"
             style="fill:#e92128;fill-opacity:1;fill-rule:nonzero;stroke:none"
             d="m 0,0 c -152.684,-14.782 -125.106,-156.63 -125.106,-156.63 21.673,48.269 40.392,60.089 40.392,60.089 10.72,-118.767 105.687,-128.424 136.312,-128.424 5.951,0 9.478,0.365 9.478,0.365 -84.239,18.809 -99.492,107.372 -99.492,107.372 C -51.221,-45.316 0,0 0,0" /></g><g
           transform="translate(64.0527,116.5752)"
           id="g28"><path
             id="path30"
             style="fill:#231f20;fill-opacity:1;fill-rule:nonzero;stroke:none"
             d="m 0,0 h 124.12 c 0,0 23.643,-9.853 24.628,-29.553 v -68.953 c 0,0 -3.942,-18.715 -22.658,-20.686 H 0 v 74.863 h 42.36 v -46.296 h 66.984 c 0,0 5.295,2.587 5.295,9.235 v 39.897 c 0,0 -2.586,10.343 -14.777,10.343 L 0,-31.15 Z" /></g><g
           transform="translate(265.1309,116.5752)"
           id="g32"><path
             id="path34"
             style="fill:#231f20;fill-opacity:1;fill-rule:nonzero;stroke:none"
             d="m 0,0 h 103.803 v -30.411 h -130.03 c 0,0 7.388,25.362 26.227,30.411" /></g><g
           transform="translate(238.9043,74.7129)"
           id="g36"><path
             id="path38"
             style="fill:#231f20;fill-opacity:1;fill-rule:nonzero;stroke:none"
             d="M 0,0 H 130.029 V -32.51 H 41.373 V -77.33 H 0 Z" /></g><path
           id="path40"
           style="fill:#010101;fill-opacity:1;fill-rule:nonzero;stroke:none"
           d="M 614.603,112.795 H 577.872 V -2.568 h 36.731 z" /><g
           transform="translate(665.0029,50.0625)"
           id="g42"><path
             id="path44"
             style="fill:#010101;fill-opacity:1;fill-rule:nonzero;stroke:none"
             d="M 0,0 H -43.62 L 12.458,-52.631 H 56.936 Z" /></g><g
           transform="translate(621.9688,59.5996)"
           id="g46"><path
             id="path48"
             style="fill:#e92128;fill-opacity:1;fill-rule:nonzero;stroke:none"
             d="M 0,0 H 40.752 L 99.97,52.047 H 57.21 Z" /></g><g
           transform="translate(536.2676,116.5752)"
           id="g50"><path
             id="path52"
             style="fill:#010101;fill-opacity:1;fill-rule:nonzero;stroke:none"
             d="m 0,0 v -30.273 h -134.88 c 0,0 1.724,25.673 35.3,30.273 z" /></g><g
           transform="translate(401.3877,74.4873)"
           id="g54"><path
             id="path56"
             style="fill:#010101;fill-opacity:1;fill-rule:nonzero;stroke:none"
             d="m 0,0 h 99.867 c 0,0 41.038,-6.171 41.038,-40.031 0,-33.861 -28.126,-35.883 -37.31,-37.025 H 3.159 v 25.547 h 92.405 c 0,0 10.328,0.281 10.328,10.471 0,10.189 -9.183,9.33 -9.183,9.33 H 34.438 c 0,0 -35.527,9.525 -34.438,31.708" /></g><g
           transform="translate(392.9961,485)"
           id="g58"><path
             id="path60"
             style="fill:#e92128;fill-opacity:1;fill-rule:nonzero;stroke:none"
             d="m 0,0 c -88.138,0 -159.587,-71.448 -159.587,-159.588 0,-88.14 71.449,-159.589 159.587,-159.589 88.139,0 159.588,71.449 159.588,159.589 C 159.588,-71.448 88.139,0 0,0 m 0,-20.687 c 37.103,0 71.983,-14.448 98.219,-40.682 26.234,-26.235 40.682,-61.116 40.682,-98.219 0,-37.102 -14.448,-71.984 -40.682,-98.219 C 71.983,-284.042 37.103,-298.49 0,-298.49 c -37.102,0 -71.983,14.448 -98.217,40.682 -26.235,26.236 -40.683,61.118 -40.683,98.22 0,37.103 14.448,71.984 40.682,98.219 26.235,26.234 61.116,40.682 98.218,40.682" /></g></g></g></g></svg>