<?xml version="1.0" encoding="UTF-8"?>
<svg xmlns="http://www.w3.org/2000/svg" xmlns:xlink="http://www.w3.org/1999/xlink" width="1195.9pt" height="315.27pt" viewBox="0 0 1195.9 315.27" version="1.1">
<defs>
<clipPath id="clip1">
  <path d="M 0 0 L 1195.898438 0 L 1195.898438 315.269531 L 0 315.269531 Z M 0 0 "/>
</clipPath>
</defs>
<g id="surface1">
<g clip-path="url(#clip1)" clip-rule="nonzero">
<path style=" stroke:none;fill-rule:evenodd;fill:rgb(79.998779%,12.5%,14.898682%);fill-opacity:1;" d="M 919.617188 117.503906 C 946.613281 67.726563 1014.109375 53.382813 1064.730469 98.097656 C 1069.789063 102.316406 1071.480469 106.535156 1078.230469 106.535156 C 1106.921875 106.535156 1142.351563 106.535156 1170.191406 106.535156 C 1181.160156 106.535156 1187.910156 103.160156 1189.601563 96.410156 C 1191.28125 92.191406 1189.601563 86.285156 1183.691406 80.382813 C 1144.878906 33.136719 1089.199219 4.449219 1012.421875 0.230469 C 928.898438 -3.144531 840.3125 30.605469 801.5 101.472656 C 783.78125 134.378906 783.78125 180.78125 801.5 213.683594 C 840.3125 284.554688 928.898438 319.144531 1012.421875 314.925781 C 1074.011719 311.550781 1122.101563 292.988281 1159.21875 260.929688 C 1171.039063 250.804688 1180.320313 238.992188 1190.441406 227.183594 C 1196.351563 220.433594 1196.351563 214.527344 1195.5 210.308594 C 1193.808594 204.402344 1186.21875 201.027344 1176.101563 201.027344 C 1148.261719 201.027344 1111.980469 201.027344 1084.140625 201.027344 C 1075.699219 201.027344 1065.570313 217.902344 1057.980469 222.964844 C 1048.699219 230.558594 1040.261719 236.464844 1030.140625 239.839844 C 987.113281 254.179688 940.710938 236.464844 919.617188 197.652344 C 906.117188 173.1875 906.117188 142.8125 919.617188 117.503906 Z M 359.410156 308.175781 L 433.65625 308.175781 C 442.089844 308.175781 453.058594 300.582031 458.121094 292.988281 L 567.800781 115.816406 C 570.332031 111.597656 573.707031 109.066406 577.925781 109.066406 C 582.144531 109.066406 585.519531 112.441406 588.050781 115.816406 L 631.074219 184.15625 C 636.140625 192.59375 632.765625 196.808594 622.640625 196.808594 L 562.738281 196.808594 C 554.300781 196.808594 542.488281 203.558594 538.273438 211.996094 C 533.210938 220.433594 528.148438 229.714844 523.085938 238.148438 C 516.335938 249.117188 518.867188 257.554688 531.523438 257.554688 L 659.761719 257.554688 C 673.261719 257.554688 678.324219 260.929688 685.070313 271.898438 L 697.726563 292.988281 C 702.789063 300.582031 713.757813 308.175781 722.195313 308.175781 L 796.4375 308.175781 C 805.71875 308.175781 808.25 300.582031 803.1875 292.988281 L 642.046875 23.011719 C 636.984375 14.574219 626.015625 7.824219 617.578125 7.824219 L 538.273438 7.824219 C 529.835938 7.824219 518.867188 14.574219 513.804688 23.011719 L 352.660156 292.988281 C 347.597656 300.582031 350.128906 308.175781 359.410156 308.175781 Z M 344.222656 7.824219 L 344.222656 210.308594 C 344.222656 264.304688 302.882813 308.175781 252.261719 308.175781 L 91.117188 308.175781 C 41.339844 308.175781 0 264.304688 0 210.308594 L 0 183.308594 L 78.460938 183.308594 C 94.492188 183.308594 102.085938 189.21875 102.085938 206.089844 L 102.085938 210.308594 C 102.085938 228.871094 115.585938 249.960938 135.832031 249.960938 L 208.390625 249.960938 C 228.640625 249.960938 242.136719 228.871094 242.136719 210.308594 L 242.136719 44.101563 C 242.136719 23.855469 251.417969 7.824219 273.355469 7.824219 L 344.222656 7.824219 "/>
</g>
</g>
</svg>
