<?xml version="1.0" encoding="UTF-8" standalone="no"?>
<svg
   xmlns:dc="http://purl.org/dc/elements/1.1/"
   xmlns:cc="http://creativecommons.org/ns#"
   xmlns:rdf="http://www.w3.org/1999/02/22-rdf-syntax-ns#"
   xmlns:svg="http://www.w3.org/2000/svg"
   xmlns="http://www.w3.org/2000/svg"
   viewBox="0 0 595.27557 841.88977"
   id="svg2"
   height="841.88977"
   width="595.27557"
   version="1.1">
  <metadata
     id="metadata24">
    <rdf:RDF>
      <cc:Work
         rdf:about="">
        <dc:format>image/svg+xml</dc:format>
        <dc:type
           rdf:resource="http://purl.org/dc/dcmitype/StillImage" />
      </cc:Work>
    </rdf:RDF>
  </metadata>
  <defs
     id="defs22" />
  <path
     id="path4"
     style="fill:#ffffff;fill-rule:evenodd;stroke:#000000;stroke-width:0.2;stroke-dasharray:none"
     d="m 127.5591,236.6929 0,368.504 340.1574,0 0,-368.504 -340.1574,0 z" />
  <g
     id="g6">
    <path
       id="path8"
       style="fill:#e30016;fill-rule:evenodd;stroke:#e30016;stroke-width:0.56690001;stroke-linecap:butt;stroke-linejoin:miter;stroke-dasharray:none"
       d="m 296.8432,381.8551 91.5115,-107.4583 0.6857,200.3417 c -0.9958,4.6483 -4.6661,5.9403 -8.6726,4.4082 l -83.5246,-97.2916 z" />
    <path
       id="path10"
       style="fill:#e30016;fill-rule:evenodd;stroke:#e30016;stroke-width:0.56690001;stroke-linecap:butt;stroke-linejoin:miter;stroke-dasharray:none"
       d="m 296.8359,381.2632 -83.5444,97.4665 c -3.5416,1.7521 -7.8565,1.9312 -8.663,-4.7262 l 0.523,-198.7773 91.6844,106.037 z" />
    <path
       id="path12"
       style="fill:#e30016;fill-rule:evenodd;stroke:#e30016;stroke-width:0.56690001;stroke-linecap:butt;stroke-linejoin:miter;stroke-dasharray:none"
       d="m 307.1103,409.4541 29.3553,36.7044 30.0328,37.5517 c 1.8454,4.996 0.0372,9.4096 -4.4455,10.3028 l -63.8601,0 -66.6173,0 c -2.9542,-0.6052 -4.6326,-2.6907 -3.5047,-8.0317 L 259.92,446.1585 289.2844,409.443 c 5.4958,-6.9613 11.5137,-5.7639 17.8259,0.0111 z" />
    <path
       id="path14"
       style="fill:#e30016;fill-rule:evenodd;stroke:#e30016;stroke-width:0.56690001;stroke-linecap:butt;stroke-linejoin:miter;stroke-dasharray:none"
       d="m 243.6987,507.8027 c 0.5511,0.0612 12.9804,0 12.9804,0 l -0.0612,43.9619 c -0.765,5.2759 -3.2757,7.6434 -6.98,8.0209 l -39.0025,-0.1836 c -2.0514,-0.2073 -3.8885,-1.2371 -4.9595,-5.2045 l 0,-14.8172 12.9192,0.1224 0,6.0617 c 0.2591,1.4794 1.0247,1.9987 2.0206,2.0817 l 22.0422,-0.0612 c 0.7458,-0.1239 1.2353,-0.6846 1.1633,-2.2042 l -0.1225,-37.7779 z" />
    <path
       id="path16"
       style="fill:#e30016;fill-rule:evenodd;stroke:#e30016;stroke-width:0.56690001;stroke-linecap:butt;stroke-linejoin:miter;stroke-dasharray:none"
       d="m 262.6795,560.5815 c 0.8572,-0.1224 15.1847,0 15.1847,0 l -0.1225,-28.5324 12.7355,28.165 11.8783,0.245 13.1029,-28.41 0.2449,28.41 15.0621,0.1224 -0.1836,-52.9625 -19.838,0.0612 -14.205,28.5324 -14.2662,-29.6345 -19.5931,0.1837 0,53.8197 z" />
    <path
       id="path18"
       style="fill:#e30016;fill-rule:evenodd;stroke:#e30016;stroke-width:0.56690001;stroke-linecap:butt;stroke-linejoin:miter;stroke-dasharray:none"
       d="m 376.871,528.4979 13.5309,0 0.1224,-14.0826 c -1.8161,-4.0008 -4.3469,-6.7762 -8.4495,-6.8575 l -38.0228,0.0612 c -4.307,1.6322 -7.4906,4.7959 -8.2046,11.3272 l -0.1837,31.4714 c 1.7119,6.6078 5.2657,9.629 10.0792,10.1959 l 33.944,0.0292 c 5.4011,-0.7837 9.642,-3.3774 10.9599,-10.5312 l 0,-10.6538 -14.0825,0.1837 0.1224,5.9392 c -0.1672,1.188 -0.953,1.4728 -2.0205,1.347 l -23.2056,-0.2449 c -1.0771,0.093 -1.802,-0.3895 -1.898,-1.8981 l 0,-21.0013 c -0.0409,-1.5716 0.6531,-2.3267 2.0817,-2.2655 l 24.0015,0.1837 c 1.0423,0.1806 1.4301,0.8544 1.1634,2.0205 l 0.0618,4.7759 z" />
  </g>
</svg>
